<?xml version="1.0" encoding="UTF-8" standalone="no"?>
<!DOCTYPE svg PUBLIC "-//W3C//DTD SVG 1.1//EN" "http://www.w3.org/Graphics/SVG/1.1/DTD/svg11.dtd">
<svg xmlns="http://www.w3.org/2000/svg" version="1.1" viewBox="0.00 0.00 1773.00 1773.00">
<path fill="#2d9ed0" d="
  M 279.28 1052.33
  C 279.25 1052.67 278.80 1052.79 278.61 1052.50
  C 273.02 1044.25 267.00 1036.52 260.53 1029.30
  C 259.55 1028.21 259.07 1026.52 259.08 1024.24
  C 259.23 998.47 259.18 973.39 258.95 949.00
  C 258.80 933.62 258.91 919.65 259.30 907.10
  C 259.32 906.43 259.64 905.80 260.17 905.38
  C 260.94 904.77 261.94 904.05 263.16 903.22
  C 267.81 900.03 269.58 895.12 268.59 889.63
  C 265.28 871.34 238.74 874.93 240.89 893.81
  C 241.55 899.61 244.89 902.89 249.63 905.74
  C 250.01 905.97 250.24 906.38 250.25 906.83
  C 250.32 923.24 250.90 942.68 250.65 961.73
  C 250.38 981.99 250.27 1000.54 250.32 1017.38
  C 250.32 1017.61 250.05 1017.73 249.88 1017.58
  L 236.07 1005.98
  C 235.36 1005.38 234.95 1004.51 234.95 1003.58
  L 234.95 831.35
  C 234.95 830.28 235.46 829.28 236.33 828.66
  C 240.17 825.87 243.88 822.66 244.37 817.46
  C 245.08 809.91 242.21 804.81 235.76 802.18
  C 220.76 796.06 209.64 816.80 221.80 826.45
  C 222.30 826.84 223.40 827.68 225.10 828.97
  C 225.66 829.39 226.00 830.04 226.01 830.74
  C 226.74 866.58 226.84 899.56 226.31 929.67
  C 225.92 952.10 227.08 978.24 226.18 997.52
  C 226.17 997.85 225.80 998.05 225.51 997.89
  C 221.62 995.70 218.53 994.00 216.22 992.78
  C 213.60 991.39 213.02 989.52 213.07 986.51
  C 213.54 957.10 213.70 938.60 213.54 931.00
  C 213.02 906.51 212.94 884.18 213.29 864.01
  C 213.33 861.82 212.35 859.75 210.36 857.81
  C 204.46 852.08 200.86 848.56 199.56 847.25
  C 198.94 846.63 198.69 845.73 198.89 844.88
  C 199.22 843.49 199.48 842.35 199.67 841.46
  C 200.75 836.26 198.47 830.54 194.05 827.37
  C 184.77 820.70 171.61 826.65 171.65 838.48
  C 171.68 849.27 180.83 855.70 191.10 852.31
  C 191.48 852.19 191.89 852.28 192.18 852.55
  C 198.26 858.26 201.64 861.47 202.32 862.16
  C 203.82 863.67 204.61 865.88 204.68 868.77
  C 204.75 871.41 204.77 876.15 204.75 883.00
  C 204.64 914.62 204.70 948.27 204.94 983.96
  C 204.94 984.84 204.06 985.44 203.24 985.11
  C 200.68 984.06 195.21 981.80 193.45 979.00
  C 193.27 978.71 193.17 978.36 193.18 978.01
  C 193.37 961.39 193.39 946.64 193.24 933.76
  C 193.21 931.36 192.34 929.30 190.61 927.57
  C 186.64 923.60 183.07 920.07 179.90 916.98
  C 178.07 915.20 177.16 912.91 177.15 910.12
  C 177.14 905.67 177.07 901.39 176.94 897.29
  C 176.91 896.23 177.37 895.22 178.20 894.55
  C 182.40 891.14 185.36 888.36 186.40 882.67
  C 188.25 872.47 178.12 863.68 168.50 867.14
  C 164.68 868.51 161.76 871.26 159.73 875.37
  C 157.30 880.30 158.06 885.25 162.01 890.23
  C 162.38 890.71 162.83 891.13 163.33 891.47
  L 167.49 894.31
  C 167.90 894.58 168.15 895.05 168.15 895.55
  C 168.21 907.18 168.23 913.25 168.22 913.76
  C 168.17 916.15 168.97 918.19 170.62 919.86
  C 174.45 923.75 178.48 927.71 182.73 931.75
  C 184.14 933.09 184.83 934.93 184.80 937.27
  C 184.69 944.37 184.63 957.03 184.62 975.26
  C 184.62 975.82 184.07 976.20 183.55 976.01
  C 172.71 971.99 161.81 968.80 150.85 966.43
  C 149.94 966.24 149.29 965.44 149.29 964.51
  L 149.29 719.24
  C 149.29 718.93 149.57 718.69 149.87 718.74
  C 177.62 722.76 203.14 732.04 226.45 746.57
  C 247.34 759.60 264.38 776.54 277.57 797.40
  C 279.10 799.82 279.20 804.11 279.22 807.63
  C 279.52 860.18 279.09 914.58 279.11 964.78
  C 279.13 1006.19 279.10 1033.67 279.01 1047.21
  C 278.99 1049.10 279.41 1050.86 279.28 1052.33
  Z"
/>
<path fill="#2d9ed0" d="
  M 446.16 789.78
  L 438.99 791.83
  C 439.08 783.92 435.74 778.74 428.96 776.29
  C 425.37 774.99 421.64 775.41 417.77 777.56
  C 409.79 781.99 408.42 792.91 414.31 799.49
  C 415.66 801.00 417.45 802.51 419.66 804.04
  C 420.04 804.30 420.27 804.74 420.26 805.20
  C 420.03 818.35 419.91 834.23 419.90 852.82
  C 419.90 854.76 419.36 856.62 418.29 858.41
  C 418.14 858.64 417.97 858.86 417.78 859.06
  C 400.22 876.71 389.26 887.91 384.90 892.66
  C 383.07 894.65 380.94 895.64 378.51 895.63
  C 351.81 895.50 323.97 895.58 295.00 895.88
  C 294.53 895.89 293.06 895.81 290.59 895.65
  C 289.86 895.61 289.29 895.00 289.29 894.27
  L 289.29 882.67
  C 289.29 882.12 289.74 881.67 290.29 881.68
  C 310.29 881.85 328.03 881.96 343.50 881.99
  C 357.05 882.02 366.24 881.92 371.08 881.68
  C 373.09 881.58 374.97 880.39 376.50 878.76
  C 383.93 870.85 391.84 862.77 400.23 854.52
  C 401.88 852.90 402.38 849.59 402.37 847.00
  C 402.22 821.15 401.52 794.93 402.14 770.66
  C 402.15 770.06 402.45 769.51 402.94 769.16
  L 407.68 765.83
  C 407.79 765.75 407.89 765.66 407.98 765.56
  C 412.51 760.25 413.27 754.71 410.26 748.93
  C 403.89 736.69 385.75 740.24 383.99 753.40
  C 383.60 756.35 383.86 758.98 384.78 761.27
  C 386.61 765.81 388.88 767.18 392.61 769.33
  C 393.15 769.63 393.48 770.21 393.48 770.83
  C 393.34 797.78 393.24 822.74 393.17 845.70
  C 393.16 848.08 391.92 850.34 390.09 852.19
  C 383.95 858.41 377.79 865.04 371.60 872.08
  C 370.59 873.23 368.71 873.55 367.01 873.53
  C 338.53 873.18 314.03 873.14 293.50 873.41
  C 292.94 873.42 291.76 873.32 289.96 873.11
  C 289.67 873.08 289.45 872.85 289.42 872.56
  C 288.95 867.42 289.08 862.46 289.80 857.68
  C 289.87 857.22 290.26 856.88 290.73 856.88
  L 370.80 856.88
  C 371.67 856.88 372.37 856.17 372.37 855.30
  L 372.37 720.61
  C 372.37 719.64 373.16 718.85 374.13 718.85
  L 444.98 718.85
  C 445.64 718.85 446.17 719.38 446.17 720.03
  L 446.16 789.78
  Z"
/>
<path fill="#2077af" d="
  M 252.34 1034.56
  C 252.43 1034.65 252.43 1034.78 252.36 1034.88
  C 252.28 1034.97 252.14 1035.00 252.04 1034.93
  C 235.95 1024.69 219.82 1015.05 202.29 1008.00
  C 177.47 998.02 148.76 991.36 121.02 990.88
  C 120.09 990.86 119.35 990.11 119.35 989.18
  L 119.35 744.90
  C 119.35 744.26 119.90 743.76 120.54 743.82
  C 125.32 744.29 130.42 744.82 135.85 745.39
  C 137.28 745.54 138.00 746.43 137.99 748.04
  C 137.86 859.73 137.85 935.42 137.97 975.13
  C 137.97 975.55 138.27 975.91 138.69 975.99
  C 155.48 978.98 171.59 983.56 187.03 989.73
  C 196.23 993.40 206.45 998.93 217.70 1006.32
  C 229.89 1014.33 241.43 1023.74 252.34 1034.56
  Z"
/>
<circle fill="#2d9ed0" cx="397.97" cy="755.69" r="5.98"/>
<path fill="#2d9ed0" d="
  M 1134.00 749.72
  C 1185.19 750.56 1224.14 786.88 1224.45 838.49
  C 1224.59 860.68 1218.11 879.66 1205.01 895.44
  C 1190.13 913.37 1168.02 924.43 1144.98 927.11
  C 1140.64 927.62 1135.34 927.82 1129.07 927.72
  C 1077.87 926.87 1038.92 890.55 1038.61 838.94
  C 1038.48 816.75 1044.96 797.77 1058.06 781.99
  C 1072.94 764.06 1095.05 753.00 1118.09 750.32
  C 1122.42 749.81 1127.73 749.61 1134.00 749.72
  Z
  M 1118.83 785.37
  C 1099.91 789.70 1083.98 804.86 1080.45 823.96
  C 1077.19 841.62 1079.53 860.95 1091.37 874.71
  C 1104.77 890.29 1124.04 896.10 1143.94 891.87
  C 1174.45 885.36 1187.24 855.53 1182.58 826.92
  C 1177.63 796.49 1148.26 778.64 1118.83 785.37
  Z"
/>
<path fill="#2d9ed0" d="
  M 585.60 818.93
  C 598.18 818.93 610.82 818.84 623.30 818.14
  C 623.91 818.10 624.38 817.60 624.38 817.00
  L 624.38 754.30
  C 624.38 753.37 625.13 752.61 626.06 752.61
  C 639.99 752.64 652.03 752.66 662.18 752.67
  C 663.57 752.67 664.26 753.45 664.26 755.01
  C 664.19 807.84 664.20 864.06 664.27 923.65
  C 664.27 924.45 663.62 925.10 662.82 925.10
  L 626.42 925.10
  C 625.27 925.10 624.33 924.16 624.33 923.01
  L 624.33 854.59
  C 624.33 853.77 623.68 853.10 622.85 853.07
  C 612.72 852.75 600.30 852.59 585.61 852.59
  C 570.91 852.60 558.50 852.76 548.37 853.08
  C 547.54 853.11 546.89 853.78 546.89 854.60
  L 546.91 923.02
  C 546.91 924.18 545.97 925.11 544.82 925.11
  L 508.42 925.12
  C 507.62 925.13 506.97 924.48 506.97 923.68
  C 507.02 864.08 507.01 807.87 506.93 755.04
  C 506.92 753.48 507.62 752.70 509.00 752.69
  C 519.15 752.68 531.19 752.66 545.12 752.62
  C 546.05 752.62 546.80 753.38 546.81 754.31
  L 546.83 817.01
  C 546.83 817.61 547.30 818.11 547.90 818.15
  C 560.38 818.85 573.03 818.93 585.60 818.93
  Z"
/>
<path fill="#2d9ed0" d="
  M 743.98 784.70
  C 743.37 784.70 742.87 785.17 742.83 785.78
  C 742.09 797.17 741.90 808.35 742.26 819.31
  C 742.27 819.62 742.41 819.92 742.64 820.14
  C 743.60 821.01 744.70 821.43 745.94 821.41
  C 772.65 821.06 797.64 820.80 820.89 820.63
  C 821.83 820.62 822.60 821.38 822.59 822.32
  C 822.56 832.13 822.56 841.38 822.61 850.07
  C 822.62 851.78 821.85 852.64 820.30 852.64
  C 794.24 852.62 768.77 852.62 743.88 852.64
  C 743.15 852.64 742.55 853.24 742.55 853.97
  L 742.55 890.56
  C 742.55 891.24 743.06 891.80 743.73 891.87
  C 745.99 892.10 748.83 892.24 752.25 892.29
  C 780.54 892.73 807.86 892.76 834.21 892.37
  C 836.71 892.33 837.03 893.90 837.11 896.13
  C 837.37 902.78 837.46 911.49 837.37 922.26
  C 837.35 924.17 836.48 925.11 834.75 925.10
  C 789.95 924.67 746.59 924.69 704.67 925.17
  C 703.62 925.18 702.77 924.34 702.77 923.30
  C 702.78 820.88 702.78 764.95 702.77 755.50
  C 702.77 753.18 703.35 752.61 705.66 752.59
  C 709.67 752.54 718.11 752.56 731.00 752.64
  C 767.41 752.87 797.41 752.86 821.00 752.62
  C 822.35 752.61 825.40 752.63 830.15 752.69
  C 832.53 752.72 833.65 753.23 833.61 755.76
  C 833.48 763.01 833.38 772.00 833.32 782.73
  C 833.31 783.82 832.43 784.70 831.35 784.70
  L 743.98 784.70
  Z"
/>
<path fill="#2d9ed0" d="
  M 1019.31 925.02
  L 978.33 925.02
  C 977.18 925.02 976.11 924.44 975.48 923.48
  C 963.00 904.40 953.16 889.11 945.95 877.60
  C 945.06 876.18 943.76 875.45 942.05 875.40
  C 930.84 875.08 919.80 875.12 908.94 875.53
  C 908.20 875.55 907.61 876.16 907.61 876.91
  L 907.61 924.24
  C 907.61 924.70 907.24 925.07 906.79 925.07
  L 868.39 925.07
  C 867.67 925.07 867.09 924.49 867.09 923.78
  L 867.09 754.66
  C 867.09 753.71 867.83 752.92 868.78 752.85
  C 870.79 752.70 872.70 752.63 874.50 752.63
  C 876.53 752.62 896.24 752.62 933.65 752.63
  C 948.96 752.63 958.84 753.01 963.29 753.76
  C 973.17 755.43 982.76 759.31 992.07 765.40
  C 1004.15 773.31 1011.79 784.06 1015.00 797.67
  C 1020.11 819.39 1015.51 844.16 997.43 858.67
  C 992.92 862.30 988.19 865.39 983.24 867.96
  C 982.74 868.22 982.58 868.85 982.89 869.32
  L 1019.89 923.93
  C 1020.20 924.39 1019.87 925.02 1019.31 925.02
  Z
  M 907.85 785.74
  L 907.95 842.52
  C 907.95 842.72 908.12 842.89 908.32 842.89
  L 947.08 842.82
  C 963.06 842.79 975.99 830.46 975.96 815.27
  L 975.96 812.75
  C 975.93 797.56 962.96 785.27 946.98 785.30
  L 908.22 785.37
  C 908.02 785.37 907.85 785.54 907.85 785.74
  Z"
/>
<path fill="#2d9ed0" d="
  M 1293.28 821.43
  C 1292.89 821.00 1292.18 821.28 1292.18 821.85
  L 1292.18 922.89
  C 1292.18 924.09 1291.21 925.06 1290.01 925.06
  L 1253.61 925.06
  C 1253.33 925.06 1253.09 924.88 1252.99 924.62
  C 1252.48 923.23 1252.23 922.11 1252.24 921.25
  C 1252.59 894.78 1252.69 863.23 1252.54 826.59
  C 1252.43 800.76 1252.98 776.21 1252.89 754.29
  C 1252.89 753.40 1253.60 752.67 1254.49 752.66
  C 1263.72 752.57 1273.71 752.57 1284.45 752.68
  C 1288.16 752.72 1293.76 760.66 1296.51 764.35
  C 1297.75 766.02 1299.86 768.69 1302.83 772.35
  C 1316.75 789.48 1336.07 813.51 1360.78 844.44
  C 1363.51 847.85 1366.89 851.31 1370.26 855.15
  C 1370.75 855.71 1371.66 855.31 1371.59 854.57
  C 1371.13 850.08 1370.92 845.33 1370.97 840.30
  C 1371.30 804.02 1371.30 775.67 1370.96 755.25
  C 1370.93 753.41 1371.68 752.50 1373.21 752.51
  C 1393.44 752.68 1405.00 752.76 1407.87 752.77
  C 1409.61 752.77 1410.49 753.54 1410.51 755.08
  C 1410.65 765.10 1410.77 815.66 1410.87 906.75
  C 1410.87 911.34 1410.78 916.94 1410.59 923.53
  C 1410.57 924.32 1409.92 924.94 1409.13 924.95
  C 1400.14 924.96 1390.43 924.96 1380.00 924.95
  C 1378.19 924.95 1377.13 924.34 1375.93 922.89
  C 1347.16 888.36 1327.77 863.85 1302.89 832.61
  C 1299.94 828.90 1296.73 825.17 1293.28 821.43
  Z"
/>
<path fill="#2d9ed0" d="
  M 1509.98 924.72
  C 1509.81 923.80 1510.03 922.94 1510.64 922.15
  C 1516.86 914.08 1522.60 906.13 1527.86 898.30
  C 1540.97 878.75 1555.08 859.68 1568.70 840.94
  C 1569.17 840.30 1569.85 839.04 1570.75 837.16
  C 1570.96 836.75 1570.95 836.26 1570.72 835.85
  C 1569.68 833.98 1568.71 832.43 1567.80 831.20
  C 1547.11 803.17 1529.01 777.60 1513.50 754.51
  C 1513.34 754.27 1513.27 754.01 1513.28 753.74
  C 1513.31 753.03 1513.91 752.46 1514.63 752.47
  C 1522.89 752.54 1536.65 752.66 1555.90 752.83
  C 1556.24 752.84 1556.58 752.92 1556.88 753.08
  C 1558.42 753.90 1559.56 754.87 1560.31 755.98
  C 1570.72 771.45 1581.46 787.53 1592.54 804.23
  C 1593.17 805.18 1594.03 806.14 1595.12 807.11
  C 1595.54 807.49 1596.19 807.44 1596.56 807.01
  C 1597.85 805.48 1599.14 803.78 1600.43 801.91
  C 1613.93 782.26 1624.35 767.01 1631.68 756.18
  C 1633.33 753.73 1635.60 752.52 1638.49 752.53
  C 1648.16 752.57 1660.76 752.59 1676.30 752.60
  C 1677.26 752.60 1677.82 753.68 1677.27 754.47
  C 1660.95 777.76 1644.70 799.62 1630.18 820.17
  C 1625.47 826.84 1622.57 831.19 1621.46 833.22
  C 1620.53 834.92 1620.74 836.76 1622.07 838.73
  C 1641.95 868.25 1662.78 896.80 1682.88 924.21
  C 1683.17 924.61 1682.89 925.18 1682.39 925.18
  L 1638.25 925.18
  C 1637.04 925.18 1635.90 924.61 1635.18 923.65
  C 1632.97 920.71 1630.51 917.17 1627.79 913.04
  C 1616.04 895.20 1606.57 881.01 1599.37 870.46
  C 1598.30 868.89 1597.32 867.74 1596.45 866.99
  C 1595.59 866.25 1594.28 866.43 1593.65 867.38
  C 1581.33 886.16 1571.95 900.34 1565.51 909.91
  C 1563.32 913.16 1561.85 915.40 1561.09 916.65
  C 1559.20 919.79 1557.14 923.58 1554.60 924.82
  C 1554.09 925.07 1553.26 925.19 1552.12 925.18
  C 1536.82 925.07 1522.95 925.06 1510.51 925.15
  C 1510.25 925.16 1510.03 924.97 1509.98 924.72
  Z"
/>
<rect fill="#2d9ed0" x="1448.86" y="752.80" width="40.22" height="172.38" rx="2.20"/>
<path fill="#939394" d="
  M 254.49 1049.84
  C 251.94 1048.45 245.80 1045.51 236.07 1041.01
  C 205.95 1027.07 174.49 1020.78 140.74 1018.23
  C 123.51 1016.93 106.77 1017.50 90.50 1019.95
  C 90.08 1020.01 89.70 1019.68 89.70 1019.25
  L 89.70 768.35
  C 89.70 768.02 89.96 767.75 90.29 767.75
  L 107.30 767.75
  C 107.68 767.75 107.99 768.06 107.99 768.45
  L 107.99 1000.66
  C 107.99 1001.40 108.59 1001.99 109.33 1002.00
  C 118.66 1002.03 128.30 1002.52 138.25 1003.46
  C 165.38 1006.03 191.89 1014.43 216.31 1026.19
  C 232.11 1033.81 244.90 1041.59 254.69 1049.53
  C 254.76 1049.59 254.78 1049.70 254.73 1049.78
  C 254.68 1049.86 254.57 1049.89 254.49 1049.84
  Z"
/>
<circle fill="#939394" cx="424.78" cy="790.08" r="6.01"/>
<path fill="#939394" d="
  M 446.16 789.78
  L 446.14 1054.17
  C 446.14 1054.61 445.79 1054.96 445.36 1054.96
  L 374.05 1054.96
  C 373.29 1054.96 372.67 1054.34 372.67 1053.58
  L 372.67 943.30
  C 372.67 943.00 372.42 942.75 372.11 942.75
  L 290.09 942.75
  C 289.64 942.75 289.27 942.38 289.27 941.92
  L 289.27 927.85
  C 289.27 927.48 289.57 927.18 289.94 927.18
  C 327.05 927.19 357.49 927.18 381.25 927.17
  C 382.88 927.17 384.06 927.36 384.77 927.74
  C 385.05 927.89 385.29 928.11 385.46 928.37
  C 387.19 931.01 388.17 932.42 388.38 932.61
  C 392.71 936.51 397.13 937.99 401.66 937.04
  C 418.61 933.47 416.06 908.99 398.74 909.01
  C 392.22 909.01 389.34 912.84 385.58 917.74
  C 385.39 918.00 385.08 918.16 384.75 918.16
  L 290.41 918.16
  C 289.95 918.16 289.57 917.78 289.57 917.31
  L 289.57 905.26
  C 289.57 904.88 289.88 904.57 290.26 904.57
  L 384.05 904.57
  C 385.00 904.57 385.92 904.18 386.59 903.50
  C 411.88 877.62 425.38 863.81 427.08 862.07
  C 427.94 861.19 428.53 860.26 428.85 859.27
  C 428.96 858.95 429.01 858.62 429.01 858.30
  L 428.81 805.28
  C 428.80 804.77 429.05 804.29 429.47 804.00
  C 434.16 800.77 437.85 797.76 438.99 791.83
  L 446.16 789.78
  Z"
/>
<circle fill="#2d9ed0" cx="230.53" cy="815.58" r="6.18"/>
<circle fill="#2d9ed0" cx="185.39" cy="838.60" r="6.09"/>
<circle fill="#2d9ed0" cx="172.55" cy="880.47" r="6.03"/>
<circle fill="#2d9ed0" cx="254.89" cy="891.90" r="6.01"/>
<circle fill="#939394" cx="399.23" cy="922.98" r="5.93"/>
<path fill="#939394" d="
  M 966.9076 974.4283
  C 976.10 989.79 970.88 1009.82 955.2439 1019.1799
  C 939.61 1028.54 919.48 1023.67 910.2924 1008.3117
  C 901.10 992.95 906.32 972.92 921.9561 963.5601
  C 937.59 954.20 957.72 959.07 966.9076 974.4283
  Z
  M 957.0147 988.6928
  C 957.18 979.37 949.75 971.67 940.4220 971.5106
  L 937.2625 971.4554
  C 927.94 971.29 920.24 978.72 920.0803 988.0481
  L 919.9853 993.4872
  C 919.82 1002.81 927.25 1010.51 936.5780 1010.6694
  L 939.7375 1010.7246
  C 949.06 1010.89 956.76 1003.46 956.9197 994.1319
  L 957.0147 988.6928
  Z"
/>
<path fill="#939394" d="
  M 744.92 977.46
  C 744.61 977.78 744.11 977.80 743.77 977.51
  C 740.49 974.72 737.82 972.34 733.94 971.41
  C 727.60 969.90 722.03 970.80 717.22 974.12
  C 712.79 977.18 709.47 982.27 709.13 988.17
  C 708.58 997.87 710.84 1004.69 719.45 1009.27
  C 724.38 1011.90 730.12 1012.18 736.66 1010.13
  C 737.04 1010.00 737.41 1009.82 737.74 1009.59
  L 743.87 1005.12
  C 744.26 1004.84 744.79 1004.88 745.14 1005.22
  C 748.14 1008.19 750.16 1010.22 751.21 1011.29
  C 752.33 1012.44 752.27 1013.61 751.03 1014.80
  C 731.34 1033.67 696.49 1020.89 695.43 993.05
  C 694.93 980.10 700.52 969.13 711.97 962.86
  C 723.78 956.38 739.00 958.23 749.36 966.69
  C 750.45 967.58 751.21 968.67 751.64 969.95
  C 751.76 970.31 751.67 970.71 751.40 970.98
  L 744.92 977.46
  Z"
/>
<path fill="#939394" d="
  M 1190.79 1007.57
  L 1191.94 1007.69
  C 1192.58 1007.75 1193.21 1007.91 1193.81 1008.17
  C 1201.10 1011.34 1208.13 1012.68 1214.91 1012.17
  C 1219.84 1011.80 1228.29 1007.84 1221.94 1001.52
  C 1218.09 997.69 1212.77 996.85 1207.56 996.16
  C 1194.72 994.46 1184.26 985.34 1189.54 972.05
  C 1193.48 962.12 1205.04 958.66 1214.77 959.17
  C 1216.61 959.27 1219.46 959.64 1223.32 960.27
  C 1230.09 961.38 1235.22 963.96 1232.66 971.66
  C 1231.24 975.89 1224.28 972.15 1221.80 970.99
  C 1220.81 970.52 1219.41 970.17 1217.61 969.92
  C 1212.05 969.14 1205.69 969.22 1202.52 974.21
  C 1199.30 979.29 1203.61 983.11 1208.21 984.07
  C 1214.62 985.40 1220.47 986.93 1225.77 988.66
  C 1233.72 991.25 1237.38 998.64 1236.39 1006.93
  C 1234.03 1026.62 1203.43 1025.85 1190.44 1018.71
  C 1190.05 1018.50 1189.74 1018.16 1189.55 1017.76
  C 1188.21 1014.93 1188.01 1011.95 1188.94 1008.81
  C 1189.18 1008.01 1189.95 1007.49 1190.79 1007.57
  Z"
/>
<path fill="#939394" d="
  M 1485.41 965.87
  C 1484.62 968.52 1483.19 971.11 1481.12 973.65
  C 1480.71 974.15 1479.98 974.26 1479.45 973.89
  C 1473.29 969.69 1460.32 966.92 1454.70 973.12
  C 1449.58 978.76 1455.77 983.35 1461.27 984.65
  C 1468.98 986.47 1473.65 987.65 1475.29 988.18
  C 1484.49 991.17 1490.97 999.15 1487.41 1009.41
  C 1481.14 1027.48 1458.36 1025.43 1444.09 1019.26
  C 1442.18 1018.44 1440.96 1017.40 1440.41 1016.15
  C 1439.01 1012.94 1440.48 1008.93 1444.02 1008.24
  C 1445.07 1008.04 1446.69 1008.29 1448.88 1009.00
  C 1456.35 1011.42 1466.30 1015.60 1473.45 1009.97
  C 1480.19 1004.67 1473.56 999.25 1467.81 998.13
  C 1458.55 996.31 1444.69 994.48 1441.28 984.05
  C 1440.73 982.35 1440.70 979.16 1441.20 974.47
  C 1442.28 964.36 1453.45 959.77 1462.78 959.07
  C 1469.19 958.59 1480.40 959.79 1485.16 964.84
  C 1485.42 965.11 1485.52 965.50 1485.41 965.87
  Z"
/>
<path fill="#939394" d="
  M 1638.79 991.42
  C 1638.92 1006.69 1654.17 1016.63 1668.03 1009.36
  C 1669.95 1008.35 1671.99 1006.20 1673.37 1005.11
  C 1673.78 1004.78 1674.37 1004.81 1674.75 1005.18
  L 1681.21 1011.49
  C 1681.84 1012.11 1681.85 1013.11 1681.25 1013.74
  C 1670.92 1024.52 1654.76 1026.49 1641.76 1019.44
  C 1630.97 1013.59 1625.30 1003.59 1625.20 991.54
  C 1625.09 979.48 1630.60 969.39 1641.29 963.36
  C 1654.17 956.09 1670.36 957.79 1680.87 968.40
  C 1681.48 969.02 1681.48 970.02 1680.87 970.65
  L 1674.51 977.06
  C 1674.14 977.44 1673.55 977.48 1673.14 977.16
  C 1671.74 976.09 1669.66 973.98 1667.72 973.00
  C 1653.75 965.96 1638.66 976.15 1638.79 991.42
  Z"
/>
<path fill="#939394" d="
  M 1074.14 1015.14
  C 1074.83 1012.21 1076.02 1009.94 1077.73 1008.34
  C 1078.71 1007.42 1080.16 1007.22 1081.35 1007.83
  C 1089.65 1012.09 1097.67 1013.97 1106.51 1010.57
  C 1110.28 1009.11 1112.33 1005.13 1109.21 1001.80
  C 1107.38 999.83 1104.19 998.44 1101.44 997.88
  C 1090.51 995.63 1075.67 993.74 1074.94 979.21
  C 1074.44 969.37 1081.69 962.64 1090.73 960.37
  C 1096.76 958.86 1103.16 958.84 1109.95 960.33
  C 1113.71 961.15 1117.36 961.61 1118.64 964.59
  C 1120.35 968.57 1118.73 972.90 1113.88 973.23
  C 1111.35 973.40 1107.78 970.75 1105.37 970.19
  C 1100.34 969.02 1092.52 969.39 1089.46 974.17
  C 1086.35 979.02 1090.83 982.94 1095.27 984.23
  C 1098.41 985.14 1102.84 986.30 1108.56 987.70
  C 1119.77 990.46 1126.73 1000.10 1121.83 1011.52
  C 1119.29 1017.42 1113.91 1020.70 1107.48 1022.40
  C 1097.09 1025.15 1086.93 1023.92 1076.99 1018.71
  C 1075.85 1018.12 1074.98 1017.38 1074.39 1016.49
  C 1074.12 1016.09 1074.03 1015.61 1074.14 1015.14
  Z"
/>
<path fill="#939394" d="
  M 657.30 1011.63
  C 667.37 1011.62 671.63 1004.10 671.57 994.99
  C 671.47 977.25 671.41 966.42 671.40 962.50
  C 671.39 960.08 673.00 959.52 675.23 959.57
  C 678.60 959.65 681.04 959.74 682.53 959.83
  C 683.51 959.89 684.27 960.69 684.29 961.67
  C 684.54 977.60 684.57 989.07 684.38 996.08
  C 683.95 1012.70 674.41 1023.77 657.30 1023.79
  C 640.20 1023.80 630.64 1012.74 630.19 996.11
  C 629.99 989.10 630.01 977.63 630.23 961.71
  C 630.25 960.73 631.02 959.92 631.99 959.86
  C 633.48 959.77 635.92 959.68 639.29 959.59
  C 641.52 959.54 643.13 960.10 643.13 962.52
  C 643.12 966.44 643.07 977.27 643.00 995.01
  C 642.96 1004.12 647.22 1011.63 657.30 1011.63
  Z"
/>
<path fill="#939394" d="
  M 755.66 1022.33
  C 754.77 1022.28 754.27 1021.28 754.76 1020.53
  C 755.57 1019.29 756.17 1018.23 756.56 1017.34
  C 760.71 1007.79 768.59 989.32 780.21 961.95
  C 780.68 960.86 781.70 960.11 782.88 959.99
  C 786.23 959.66 789.56 959.69 792.88 960.10
  C 794.30 960.27 795.41 961.27 796.21 963.09
  C 804.23 981.36 812.52 1000.56 821.08 1020.71
  C 821.38 1021.43 820.86 1022.22 820.08 1022.22
  C 814.45 1022.19 810.94 1022.14 809.53 1022.05
  C 806.57 1021.87 804.21 1014.27 803.21 1011.10
  C 802.74 1009.60 801.50 1008.84 799.49 1008.83
  C 789.32 1008.76 782.14 1008.79 777.95 1008.90
  C 773.87 1009.01 772.05 1011.07 770.82 1015.04
  C 770.68 1015.51 770.08 1017.09 769.03 1019.80
  C 767.74 1023.10 765.96 1022.48 762.61 1022.47
  C 759.09 1022.45 756.77 1022.40 755.66 1022.33
  Z
  M 778.89 997.56
  C 778.67 998.11 779.08 998.70 779.67 998.70
  L 796.93 998.61
  C 797.53 998.61 797.93 998.01 797.71 997.46
  L 788.96 975.68
  C 788.68 974.97 787.68 974.98 787.40 975.69
  L 778.89 997.56
  Z"
/>
<path fill="#939394" d="
  M 852.88 972.11
  C 851.88 975.17 852.61 978.54 852.54 982.15
  C 852.29 994.36 852.25 1007.26 852.41 1020.87
  C 852.42 1021.82 851.66 1022.59 850.71 1022.59
  L 840.93 1022.59
  C 839.97 1022.59 839.20 1021.82 839.20 1020.86
  L 839.20 973.98
  C 839.20 972.56 838.05 971.40 836.63 971.40
  L 821.63 971.40
  C 820.67 971.40 819.90 970.63 819.90 969.67
  L 819.90 961.82
  C 819.90 960.74 820.77 959.86 821.85 959.85
  C 837.72 959.72 853.44 959.77 869.01 959.99
  C 870.88 960.02 871.84 960.83 871.89 962.44
  C 871.97 965.41 871.78 967.98 871.33 970.14
  C 871.20 970.76 870.65 971.21 870.01 971.21
  L 854.13 971.21
  C 853.56 971.21 853.06 971.57 852.88 972.11
  Z"
/>
<path fill="#939394" d="
  M 1414.97 985.61
  C 1414.42 986.82 1413.67 987.81 1412.74 988.59
  C 1412.34 988.93 1412.00 989.33 1411.75 989.79
  C 1409.14 994.60 1405.03 1001.87 1399.42 1011.62
  C 1398.27 1013.61 1396.91 1015.30 1395.34 1016.67
  C 1394.57 1017.35 1393.45 1017.45 1392.57 1016.92
  C 1391.30 1016.15 1390.24 1015.05 1389.39 1013.61
  C 1388.30 1011.77 1384.28 1004.29 1377.35 991.18
  C 1376.47 989.51 1375.22 988.45 1373.61 988.00
  C 1373.15 987.87 1372.69 988.21 1372.69 988.69
  L 1372.69 1020.08
  C 1372.69 1021.23 1371.75 1022.17 1370.60 1022.17
  L 1362.06 1022.17
  C 1360.97 1022.17 1360.09 1021.29 1360.10 1020.21
  C 1360.14 1012.17 1360.26 1000.88 1359.54 991.49
  C 1359.42 989.87 1359.55 985.71 1359.92 979.00
  C 1360.19 974.19 1360.23 968.89 1360.05 963.09
  C 1359.98 960.75 1360.45 959.73 1363.00 959.67
  C 1365.27 959.61 1371.65 958.92 1373.24 961.75
  C 1385.48 983.60 1391.75 994.74 1392.05 995.19
  C 1392.42 995.75 1392.95 996.38 1393.63 997.09
  C 1394.18 997.66 1395.12 997.54 1395.52 996.85
  L 1415.82 961.70
  C 1416.38 960.73 1417.41 960.14 1418.52 960.14
  L 1426.56 960.14
  C 1427.60 960.14 1428.41 961.03 1428.31 962.06
  C 1427.96 965.75 1427.82 969.23 1427.89 972.50
  C 1428.17 985.70 1428.21 999.00 1428.02 1012.41
  C 1427.98 1015.11 1428.29 1018.51 1428.39 1020.81
  C 1428.42 1021.71 1427.71 1022.45 1426.82 1022.45
  L 1417.45 1022.45
  C 1416.30 1022.45 1415.37 1021.51 1415.38 1020.35
  C 1415.50 1010.60 1415.67 1000.65 1415.90 990.50
  C 1415.94 988.81 1415.79 987.19 1415.45 985.66
  C 1415.40 985.42 1415.07 985.39 1414.97 985.61
  Z"
/>
<path fill="#939394" d="
  M 1567.07 1021.71
  C 1566.77 1022.04 1566.37 1022.21 1565.86 1022.22
  C 1544.59 1022.37 1531.61 1022.46 1526.90 1022.49
  C 1524.30 1022.51 1523.81 1020.94 1523.90 1018.56
  C 1524.56 999.82 1524.73 981.30 1524.41 963.00
  C 1524.37 960.82 1525.40 959.94 1527.52 959.97
  C 1529.11 959.99 1531.44 959.98 1534.50 959.95
  C 1537.00 959.93 1537.40 960.98 1537.41 963.27
  C 1537.43 968.04 1537.41 983.05 1537.35 1008.32
  C 1537.34 1010.07 1538.22 1010.95 1539.99 1010.96
  C 1552.67 1010.99 1561.21 1011.03 1565.60 1011.06
  C 1566.62 1011.07 1567.44 1011.89 1567.46 1012.90
  C 1567.51 1016.28 1567.50 1018.93 1567.42 1020.85
  C 1567.41 1021.18 1567.29 1021.47 1567.07 1021.71
  Z"
/>
<path fill="#939394" d="
  M 1620.34 1021.65
  C 1620.04 1021.99 1619.63 1022.16 1619.13 1022.17
  C 1597.78 1022.37 1584.74 1022.49 1580.01 1022.54
  C 1577.40 1022.56 1576.91 1020.99 1576.99 1018.60
  C 1577.61 999.78 1577.73 981.19 1577.36 962.82
  C 1577.31 960.63 1578.35 959.75 1580.47 959.77
  C 1582.07 959.79 1584.41 959.78 1587.48 959.73
  C 1589.99 959.71 1590.40 960.76 1590.41 963.06
  C 1590.44 967.84 1590.46 982.92 1590.47 1008.28
  C 1590.47 1010.05 1591.35 1010.93 1593.13 1010.93
  C 1605.86 1010.93 1614.43 1010.94 1618.84 1010.96
  C 1619.86 1010.97 1620.69 1011.79 1620.71 1012.80
  C 1620.77 1016.20 1620.76 1018.86 1620.69 1020.79
  C 1620.68 1021.12 1620.56 1021.41 1620.34 1021.65
  Z"
/>
<path fill="#939394" d="
  M 542.29 985.84
  C 542.77 985.86 543.15 986.25 543.15 986.73
  L 543.15 994.91
  C 543.15 995.77 542.42 996.46 541.56 996.42
  C 532.76 995.95 524.74 995.77 517.51 995.89
  C 515.31 995.93 514.39 998.01 514.29 1000.22
  C 514.12 1003.75 514.08 1006.84 514.16 1009.51
  C 514.18 1009.98 514.47 1010.39 514.90 1010.56
  C 516.45 1011.16 518.15 1011.46 520.00 1011.46
  C 525.01 1011.47 533.77 1011.38 546.26 1011.17
  C 547.27 1011.15 548.10 1011.96 548.10 1012.97
  L 548.10 1020.37
  C 548.10 1021.51 547.17 1022.42 546.03 1022.39
  C 533.69 1022.11 519.83 1022.19 504.46 1022.62
  C 503.27 1022.65 502.32 1022.26 501.60 1021.43
  C 501.39 1021.19 501.28 1020.89 501.28 1020.58
  C 501.33 1005.37 501.45 985.92 501.66 962.24
  C 501.67 960.80 502.47 960.08 504.04 960.08
  C 529.66 960.09 543.39 960.10 545.22 960.11
  C 546.00 960.12 546.63 960.75 546.63 961.54
  L 546.63 969.37
  C 546.63 970.34 545.85 971.12 544.88 971.12
  L 516.35 971.12
  C 515.52 971.12 514.84 971.80 514.84 972.64
  L 514.84 983.44
  C 514.84 983.77 514.98 984.08 515.23 984.30
  C 516.09 985.05 517.35 985.43 519.00 985.43
  C 526.37 985.44 534.13 985.58 542.29 985.84
  Z"
/>
<path fill="#939394" d="
  M 1023.54 995.80
  C 1024.28 996.17 1025.15 995.61 1025.13 994.78
  C 1024.92 986.71 1024.68 976.20 1024.39 963.26
  C 1024.34 961.00 1025.28 960.05 1027.51 960.11
  C 1030.20 960.18 1032.78 960.18 1035.25 960.13
  C 1036.76 960.10 1037.51 960.80 1037.50 962.25
  C 1037.32 986.92 1037.27 1006.25 1037.34 1020.25
  C 1037.35 1022.37 1036.11 1023.21 1033.98 1023.00
  C 1030.57 1022.65 1028.70 1022.45 1028.35 1022.41
  C 1027.08 1022.28 1025.92 1021.63 1025.13 1020.61
  L 998.19 985.95
  C 997.78 985.42 996.99 985.40 996.56 985.91
  C 996.00 986.56 995.71 987.76 995.68 989.50
  C 995.51 999.62 995.68 1009.99 996.19 1020.62
  C 996.23 1021.43 995.59 1022.11 994.78 1022.12
  C 991.60 1022.17 988.26 1022.19 984.75 1022.20
  C 983.32 1022.21 982.63 1021.47 982.69 1019.99
  C 982.87 1015.78 982.94 1012.62 982.91 1010.50
  C 982.70 996.71 982.55 980.54 982.46 961.97
  C 982.45 961.16 983.06 960.47 983.87 960.37
  C 988.06 959.86 993.18 959.32 996.25 962.97
  C 997.18 964.08 1004.67 973.63 1018.74 991.63
  C 1019.72 992.89 1021.99 995.03 1023.54 995.80
  Z"
/>
<path fill="#939394" d="
  M 1156.20 986.66
  C 1157.09 985.94 1157.96 984.90 1158.79 983.54
  C 1160.40 980.91 1164.61 973.68 1171.42 961.87
  C 1172.00 960.87 1173.08 960.25 1174.24 960.25
  L 1183.80 960.25
  C 1184.37 960.25 1184.73 960.86 1184.44 961.35
  C 1177.33 973.40 1170.08 985.59 1162.68 997.92
  C 1161.77 999.44 1161.26 1001.46 1161.15 1003.97
  C 1160.93 1009.13 1160.90 1014.32 1161.06 1019.53
  C 1161.10 1020.99 1159.98 1022.23 1158.52 1022.32
  C 1157.66 1022.37 1155.14 1022.43 1150.97 1022.52
  C 1148.77 1022.56 1148.33 1021.62 1148.38 1019.48
  C 1148.59 1010.43 1148.45 1004.20 1147.95 1000.79
  C 1147.75 999.41 1146.96 997.47 1145.58 994.97
  C 1140.90 986.49 1136.14 978.02 1131.29 969.56
  C 1129.69 966.75 1127.45 964.05 1125.92 961.56
  C 1125.54 960.94 1125.98 960.15 1126.70 960.15
  L 1137.39 960.15
  C 1138.84 960.15 1140.16 960.95 1140.84 962.22
  C 1144.13 968.37 1147.36 974.20 1150.54 979.70
  C 1152.03 982.27 1153.58 984.56 1155.19 986.55
  C 1155.44 986.86 1155.89 986.91 1156.20 986.66
  Z"
/>
<path fill="#939394" d="
  M 1292.14 969.59
  C 1292.14 970.44 1291.45 971.13 1290.61 971.13
  L 1275.11 971.13
  C 1274.15 971.13 1273.37 971.90 1273.36 972.86
  C 1273.33 974.78 1273.33 990.50 1273.36 1020.01
  C 1273.36 1021.82 1272.67 1022.72 1271.30 1022.73
  C 1267.95 1022.73 1264.84 1022.71 1261.96 1022.67
  C 1260.91 1022.66 1260.07 1021.81 1260.07 1020.76
  L 1260.07 973.76
  C 1260.07 972.39 1258.96 971.28 1257.59 971.28
  L 1243.36 971.28
  C 1242.38 971.28 1241.51 970.68 1241.16 969.77
  C 1240.41 967.81 1240.14 965.34 1240.36 962.36
  C 1240.50 960.45 1242.28 960.15 1243.94 960.14
  C 1260.14 960.09 1275.67 960.17 1290.52 960.39
  C 1291.42 960.41 1292.14 961.14 1292.14 962.04
  L 1292.14 969.59
  Z"
/>
<path fill="#939394" d="
  M 560.30 962.25
  C 560.31 961.14 561.21 960.25 562.32 960.26
  L 589.48 960.40
  C 606.18 960.49 619.64 973.63 619.56 989.77
  L 619.54 993.43
  C 619.46 1009.56 605.85 1022.56 589.16 1022.48
  L 562.00 1022.33
  C 560.89 1022.33 559.99 1021.42 560.00 1020.31
  L 560.30 962.25
  Z
  M 573.42 973.19
  L 573.86 1009.45
  C 573.87 1010.17 574.47 1010.75 575.19 1010.74
  L 587.40 1010.59
  C 597.91 1010.46 606.34 1002.40 606.22 992.59
  L 606.18 989.25
  C 606.06 979.44 597.44 971.59 586.92 971.72
  L 574.71 971.86
  C 573.99 971.87 573.41 972.47 573.42 973.19
  Z"
/>
<rect fill="#939394" x="-6.57" y="-31.29" transform="translate(887.53,991.45) rotate(-0.1)" width="13.14" height="62.58" rx="1.88"/>
<path fill="#939394" d="
  M 1315.53 995.91
  C 1315.17 995.92 1314.87 996.18 1314.82 996.54
  C 1314.31 1000.47 1314.09 1004.48 1314.15 1008.57
  C 1314.18 1010.38 1314.95 1011.29 1316.46 1011.32
  C 1324.02 1011.44 1333.80 1011.42 1345.81 1011.25
  C 1346.83 1011.23 1347.67 1012.06 1347.67 1013.09
  L 1347.67 1020.15
  C 1347.67 1021.40 1346.65 1022.42 1345.40 1022.42
  C 1342.94 1022.41 1330.22 1022.50 1307.25 1022.68
  C 1304.42 1022.70 1301.50 1023.15 1301.59 1019.23
  C 1301.96 1003.53 1302.19 988.12 1302.28 973.01
  C 1302.29 970.83 1302.12 967.38 1301.75 962.65
  C 1301.72 962.33 1301.80 962.00 1301.98 961.73
  C 1302.62 960.74 1303.63 960.25 1305.02 960.24
  C 1314.99 960.16 1328.29 960.15 1344.93 960.20
  C 1345.99 960.21 1346.84 961.06 1346.84 962.12
  L 1346.84 969.07
  C 1346.84 970.25 1345.87 971.20 1344.69 971.18
  C 1328.83 970.84 1320.02 970.67 1318.25 970.66
  C 1317.68 970.65 1316.85 970.78 1315.76 971.03
  C 1315.03 971.19 1314.52 971.84 1314.52 972.58
  L 1314.52 983.45
  C 1314.52 984.36 1315.25 985.09 1316.16 985.09
  L 1343.72 985.09
  C 1344.00 985.09 1344.22 985.31 1344.22 985.59
  L 1344.23 993.78
  C 1344.23 994.24 1344.08 994.68 1343.80 995.04
  C 1343.35 995.63 1342.34 995.91 1340.77 995.90
  C 1329.34 995.79 1320.92 995.79 1315.53 995.91
  Z"
/>
</svg>
