<?xml version="1.0" encoding="UTF-8" standalone="no"?>
<!DOCTYPE svg PUBLIC "-//W3C//DTD SVG 1.1//EN" "http://www.w3.org/Graphics/SVG/1.1/DTD/svg11.dtd">
<svg xmlns="http://www.w3.org/2000/svg" version="1.1" viewBox="0.00 0.00 1773.00 1773.00">
<path fill="#2f9fd2" d="
  M 803.26 1494.42
  C 803.05 1494.35 802.72 1494.11 802.27 1493.72
  C 776.37 1471.03 756.23 1454.17 741.86 1443.13
  C 733.21 1436.48 733.50 1430.76 733.43 1419.39
  C 733.12 1365.64 732.98 1331.60 733.02 1317.25
  C 733.35 1199.40 733.71 1144.42 733.38 1048.75
  C 733.14 979.98 733.01 914.74 732.98 853.01
  C 732.95 780.74 734.91 698.54 732.85 633.01
  C 732.60 625.29 735.50 619.06 741.72 614.91
  C 758.08 603.99 774.24 587.77 776.84 567.57
  C 778.21 556.90 777.79 546.01 775.59 534.88
  C 775.01 531.95 774.28 529.58 773.40 527.79
  C 765.76 512.28 754.34 501.10 739.13 494.27
  C 730.77 490.52 722.90 488.50 715.53 488.21
  C 708.60 487.94 700.70 489.40 691.82 492.61
  C 675.78 498.39 664.02 508.87 656.53 524.04
  C 640.98 555.55 648.55 591.87 678.83 610.95
  C 686.49 615.77 692.85 619.50 692.81 629.76
  C 692.62 673.79 692.95 735.51 693.82 814.93
  C 694.09 839.42 694.13 858.63 693.94 872.58
  C 693.62 896.58 694.23 920.11 693.97 949.46
  C 692.97 1064.17 692.46 1131.76 692.45 1152.25
  C 692.40 1226.26 694.33 1317.74 692.83 1398.86
  C 692.81 1399.79 692.28 1400.64 691.23 1401.41
  C 690.96 1401.61 690.61 1401.68 690.28 1401.60
  C 687.34 1400.85 685.20 1400.04 683.85 1399.15
  C 671.22 1390.89 658.33 1383.37 645.19 1376.58
  C 637.85 1372.79 632.91 1366.42 633.12 1357.47
  C 633.82 1326.23 634.30 1290.20 633.99 1255.84
  C 633.56 1207.32 633.18 1172.88 633.51 1130.82
  C 634.21 1040.46 632.87 960.42 633.21 875.00
  C 633.38 831.85 633.39 800.69 633.23 781.50
  C 633.12 768.86 624.33 756.63 614.85 747.63
  C 598.18 731.80 585.16 719.10 575.79 709.53
  C 571.86 705.52 568.92 702.11 566.97 699.31
  C 561.88 692.01 568.81 685.48 569.82 678.56
  C 571.89 664.26 571.48 652.41 565.79 638.85
  C 557.64 619.44 543.06 606.40 522.05 599.73
  C 512.64 596.75 503.76 595.90 493.65 598.06
  C 477.79 601.44 463.51 608.64 453.33 621.21
  C 440.10 637.53 436.29 661.80 441.54 681.93
  C 447.24 703.78 463.67 720.00 485.18 726.83
  C 494.83 729.89 505.59 730.70 517.48 729.25
  C 521.91 728.71 526.42 727.28 531.01 724.97
  C 532.13 724.41 533.29 724.72 534.50 725.89
  C 538.99 730.24 553.62 744.05 578.41 767.32
  C 582.41 771.07 585.91 775.50 588.92 780.59
  C 592.88 787.30 592.93 794.45 593.13 804.71
  C 593.67 833.65 593.08 862.90 593.21 882.00
  C 593.60 938.82 593.44 1008.41 592.72 1090.77
  C 592.61 1102.99 592.69 1143.55 592.95 1212.44
  C 593.07 1246.51 594.45 1288.02 594.18 1321.76
  C 594.11 1330.26 593.86 1336.23 593.43 1339.68
  C 593.06 1342.68 591.31 1343.76 588.18 1342.92
  C 584.53 1341.94 581.76 1340.97 579.87 1340.00
  C 574.67 1337.35 566.40 1332.88 555.05 1326.61
  C 548.93 1323.22 545.38 1321.04 544.41 1320.06
  C 541.25 1316.89 539.71 1313.12 539.78 1308.74
  C 540.44 1268.09 540.55 1220.74 540.10 1166.67
  C 539.98 1151.42 540.36 1134.85 540.56 1119.00
  C 540.64 1112.34 540.34 1105.46 539.65 1098.35
  C 538.54 1086.80 530.57 1078.19 522.82 1070.13
  C 517.65 1064.75 506.39 1053.74 489.03 1037.09
  C 482.31 1030.65 475.63 1023.81 470.52 1016.75
  C 467.06 1011.98 465.87 1005.52 465.69 999.00
  C 465.21 981.15 464.77 960.29 464.38 936.42
  C 464.31 932.19 464.69 929.25 465.50 927.60
  C 468.79 920.91 475.49 917.27 482.46 912.21
  C 486.33 909.40 490.13 905.45 493.86 900.36
  C 509.10 879.56 515.21 849.63 501.90 826.05
  C 492.40 809.21 476.67 797.62 457.94 792.47
  C 447.72 789.66 436.32 790.81 426.52 794.53
  C 401.52 804.02 385.89 821.82 379.63 847.93
  C 374.00 871.43 386.02 895.33 404.73 909.53
  C 408.46 912.36 413.51 915.73 419.88 919.62
  C 422.69 921.35 424.10 923.89 424.09 927.25
  C 424.01 985.66 424.00 1016.50 424.05 1019.75
  C 424.20 1029.41 433.63 1039.16 440.29 1045.54
  C 469.24 1073.30 487.52 1091.20 495.13 1099.25
  C 500.17 1104.57 500.68 1109.56 500.66 1117.50
  C 500.55 1163.47 500.31 1212.39 499.92 1264.25
  C 499.87 1270.53 500.06 1281.11 500.48 1295.99
  C 500.64 1301.66 493.36 1300.30 489.80 1298.96
  C 440.57 1280.39 390.45 1265.86 339.44 1255.37
  C 336.53 1254.77 336.01 1252.48 336.01 1249.65
  C 336.02 868.48 336.02 488.29 336.01 109.09
  C 336.01 107.81 336.95 106.72 338.22 106.53
  C 340.09 106.24 341.97 106.27 343.88 106.62
  C 363.26 110.12 378.93 112.20 398.33 116.33
  C 418.64 120.66 430.81 123.39 434.82 124.50
  C 469.20 134.04 502.42 144.47 534.47 155.79
  C 554.17 162.74 574.00 171.00 593.95 180.56
  C 626.00 195.93 656.19 211.99 684.52 228.72
  C 705.75 241.27 725.66 254.69 744.25 268.98
  C 769.36 288.30 793.30 308.26 816.07 328.87
  C 836.53 347.39 853.10 367.40 873.21 390.78
  C 880.00 398.67 885.87 405.93 890.83 412.56
  C 905.82 432.58 916.90 447.54 924.07 457.43
  C 931.69 467.95 937.50 479.36 938.34 492.75
  C 938.99 503.12 939.29 511.78 939.23 518.75
  C 939.18 524.62 939.05 576.21 938.86 673.50
  C 938.79 709.33 939.17 763.17 940.02 835.00
  C 940.60 883.92 938.64 936.68 938.48 990.01
  C 938.41 1011.66 938.26 1026.38 938.01 1034.17
  C 937.19 1059.87 938.71 1081.78 938.66 1108.06
  C 938.39 1255.82 938.47 1400.19 938.91 1541.17
  C 938.98 1564.11 938.48 1582.71 938.08 1605.50
  C 937.81 1621.13 938.35 1637.63 939.71 1654.99
  C 939.74 1655.38 939.67 1655.67 939.52 1655.86
  C 939.06 1656.42 938.23 1656.56 937.54 1656.19
  C 935.85 1655.29 934.52 1654.14 933.56 1652.75
  C 922.55 1636.65 911.64 1620.56 901.08 1606.57
  C 897.28 1601.52 892.42 1595.44 886.50 1588.32
  C 872.11 1571.02 863.58 1560.79 860.92 1557.62
  C 854.08 1549.49 850.09 1544.33 848.94 1542.16
  C 845.89 1536.40 844.43 1530.10 844.54 1523.25
  C 844.99 1496.32 845.26 1472.14 845.37 1450.69
  C 845.64 1396.53 845.97 1307.62 845.17 1239.41
  C 844.58 1189.71 844.26 1158.44 844.76 1113.86
  C 845.39 1057.92 845.80 1013.80 845.97 981.50
  C 846.00 975.72 848.38 971.59 853.11 969.12
  C 873.15 958.64 887.71 943.00 890.31 920.49
  C 894.65 882.91 871.62 849.42 832.80 844.10
  C 812.60 841.33 792.47 848.57 778.03 863.17
  C 766.71 874.62 760.91 888.83 760.63 905.80
  C 760.47 915.43 761.46 924.06 763.60 931.69
  C 767.85 946.90 779.92 959.36 793.28 967.48
  C 796.15 969.22 801.13 971.41 803.36 974.53
  C 804.89 976.66 805.63 979.07 805.60 981.77
  C 805.25 1011.18 805.43 1041.01 806.12 1071.28
  C 806.44 1085.08 806.32 1095.56 806.33 1113.18
  C 806.33 1116.03 806.40 1118.57 806.53 1120.81
  C 806.74 1124.26 806.36 1127.74 806.34 1130.99
  C 805.97 1222.50 805.51 1341.76 804.97 1488.75
  C 804.96 1490.48 804.88 1492.07 804.71 1493.51
  C 804.63 1494.20 803.92 1494.65 803.26 1494.42
  Z"
/>
<path fill="#2f9fd2" d="
  M 1713.65 428.30
  C 1702.20 429.19 1691.20 431.56 1680.65 435.40
  C 1678.30 413.67 1668.81 396.24 1652.18 383.10
  C 1631.95 367.11 1607.89 367.48 1585.17 377.65
  C 1567.76 385.44 1555.98 399.48 1551.49 418.10
  C 1545.41 443.37 1550.78 467.50 1569.84 485.68
  C 1577.31 492.81 1587.48 497.59 1593.78 505.04
  C 1594.69 506.11 1595.13 507.51 1595.00 508.92
  C 1594.09 518.72 1593.41 529.66 1592.95 541.75
  C 1592.38 556.80 1591.98 578.05 1591.75 605.50
  C 1591.30 659.07 1591.08 702.48 1591.08 735.74
  C 1591.08 747.23 1586.15 754.08 1577.95 761.95
  C 1547.62 791.05 1519.01 822.23 1488.67 851.93
  C 1475.41 864.90 1459.58 881.23 1441.18 900.93
  C 1435.81 906.66 1430.16 912.34 1424.22 917.97
  C 1420.11 921.86 1415.02 926.00 1409.24 926.74
  C 1404.37 927.35 1400.12 927.59 1396.50 927.44
  C 1380.85 926.81 1359.94 926.47 1333.75 926.41
  C 1279.02 926.28 1222.52 926.58 1164.25 927.30
  C 1145.27 927.54 1088.46 927.51 993.83 927.22
  C 992.71 927.21 991.36 927.00 989.77 926.57
  C 987.02 925.84 985.66 923.98 985.67 921.00
  C 985.75 902.55 985.81 885.47 985.84 869.77
  C 985.85 863.82 989.95 863.08 995.22 863.07
  C 1061.47 862.99 1128.39 863.28 1196.00 863.95
  C 1254.51 864.53 1306.70 864.09 1352.00 863.35
  C 1365.96 863.13 1377.43 861.66 1387.72 851.73
  C 1396.38 843.36 1406.43 833.16 1417.43 820.79
  C 1432.82 803.46 1450.36 785.84 1469.78 767.29
  C 1479.82 757.70 1489.42 747.80 1498.58 737.59
  C 1505.48 729.90 1510.33 722.93 1510.26 712.00
  C 1510.00 664.07 1510.24 619.77 1509.53 583.34
  C 1508.97 554.53 1508.53 528.33 1508.20 504.75
  C 1507.64 463.30 1508.02 420.38 1509.33 376.00
  C 1509.49 370.67 1509.47 361.09 1509.27 347.26
  C 1509.21 342.63 1512.45 339.81 1516.80 337.24
  C 1536.11 325.81 1549.63 311.77 1554.24 289.51
  C 1560.76 258.07 1540.11 225.20 1510.36 214.89
  C 1485.78 206.38 1460.87 213.15 1442.58 231.09
  C 1430.09 243.34 1423.93 258.30 1424.09 275.97
  C 1424.24 292.55 1428.22 308.43 1439.11 321.40
  C 1446.70 330.45 1456.14 336.43 1467.02 341.87
  C 1468.72 342.71 1469.15 343.88 1469.14 345.70
  C 1468.73 413.17 1468.31 509.44 1467.86 634.50
  C 1467.80 649.82 1467.97 670.57 1468.37 696.76
  C 1468.46 702.93 1466.90 708.72 1463.68 714.13
  C 1462.66 715.85 1458.60 720.36 1451.51 727.65
  C 1439.87 739.62 1433.97 745.69 1433.81 745.85
  C 1411.55 768.14 1390.56 791.43 1369.09 816.07
  C 1364.12 821.78 1357.67 824.60 1349.75 824.52
  C 1320.85 824.21 1288.72 822.91 1257.50 822.89
  C 1164.67 822.84 1076.52 822.96 993.06 823.25
  C 987.30 823.27 985.45 821.58 985.63 815.63
  C 986.30 793.23 986.72 772.97 986.89 754.84
  C 986.92 750.64 988.06 747.86 992.52 747.85
  C 998.93 747.83 1122.93 747.47 1364.50 746.77
  C 1370.36 746.75 1370.93 741.36 1370.92 736.00
  C 1370.91 732.04 1370.95 718.12 1371.03 694.25
  C 1371.23 638.19 1371.34 523.52 1371.36 350.25
  C 1371.37 282.52 1372.23 207.61 1371.80 133.25
  C 1371.75 126.10 1372.16 119.27 1373.03 112.74
  C 1373.76 107.32 1377.32 106.83 1382.41 106.77
  C 1403.01 106.52 1426.20 106.53 1451.98 106.78
  C 1512.03 107.36 1560.95 107.19 1629.25 107.27
  C 1635.84 107.28 1652.18 107.09 1678.25 106.72
  C 1692.14 106.52 1702.13 106.70 1708.24 107.25
  C 1714.63 107.82 1715.38 112.71 1715.09 118.56
  C 1714.49 130.84 1714.07 139.27 1714.10 151.15
  C 1714.33 243.53 1714.18 335.91 1713.65 428.30
  Z"
/>
<path fill="#2077ae" d="
  M 816.72 1574.63
  C 816.81 1574.99 816.44 1575.28 816.10 1575.13
  C 812.18 1573.31 808.33 1571.49 804.54 1569.68
  C 802.17 1568.55 798.55 1566.32 793.68 1562.97
  C 757.75 1538.31 720.89 1515.96 683.12 1495.93
  C 672.03 1490.05 655.31 1481.77 632.96 1471.09
  C 605.29 1457.87 580.80 1447.61 559.47 1440.31
  C 532.24 1430.99 511.94 1424.14 498.57 1419.75
  C 489.39 1416.74 475.57 1412.62 457.12 1407.39
  C 373.79 1383.78 288.82 1370.84 202.20 1368.59
  C 197.38 1368.46 196.75 1363.30 196.68 1358.75
  C 196.61 1353.79 196.77 1321.29 197.17 1261.26
  C 197.37 1231.95 197.47 1199.45 197.48 1163.75
  C 197.49 1010.88 197.48 819.04 197.45 588.25
  C 197.44 531.83 197.51 491.83 197.64 468.26
  C 198.06 393.98 197.22 311.09 197.62 229.29
  C 197.63 226.05 198.85 224.03 201.27 223.23
  C 201.60 223.12 201.94 223.08 202.28 223.13
  C 203.19 223.24 210.80 223.85 225.11 224.95
  C 241.52 226.21 259.22 229.02 275.50 229.94
  C 280.37 230.21 282.81 232.90 282.82 238.01
  C 282.95 284.72 282.95 319.05 282.80 341.00
  C 282.32 412.74 282.29 461.10 282.75 538.58
  C 282.94 569.22 282.96 602.00 282.82 636.92
  C 282.50 718.43 282.52 797.06 282.89 872.83
  C 283.19 937.40 282.26 1005.30 282.48 1059.50
  C 282.93 1173.26 283.17 1252.38 283.22 1296.87
  C 283.22 1298.49 284.30 1299.49 286.47 1299.86
  C 301.48 1302.41 315.93 1304.91 329.83 1307.37
  C 333.39 1308.00 338.53 1309.24 343.19 1310.51
  C 355.03 1313.74 366.66 1316.58 378.07 1319.05
  C 383.44 1320.21 393.39 1323.07 407.94 1327.64
  C 440.14 1337.75 465.28 1346.00 483.37 1352.39
  C 513.16 1362.91 539.79 1376.03 569.46 1390.85
  C 583.99 1398.11 599.29 1406.66 615.35 1416.51
  C 654.86 1440.74 690.24 1463.45 723.36 1490.45
  C 728.19 1494.38 742.64 1506.50 766.72 1526.79
  C 772.76 1531.88 779.82 1539.32 786.56 1544.96
  C 795.78 1552.68 805.17 1561.42 814.72 1571.17
  C 815.76 1572.23 816.43 1573.38 816.72 1574.63
  Z"
/>
<ellipse fill="#2f9fd2" cx="0.00" cy="0.00" transform="translate(1490.06,277.70) rotate(-7.5)" rx="28.68" ry="27.67"/>
<path fill="#969a9c" d="
  M 838.36 1651.14
  L 838.32 1651.56
  C 838.29 1651.96 837.81 1652.15 837.51 1651.88
  C 834.30 1648.99 831.04 1646.80 827.71 1645.29
  C 813.85 1639.00 804.43 1634.50 799.44 1631.79
  C 790.51 1626.93 774.77 1618.37 761.04 1612.23
  C 753.81 1609.00 742.00 1603.55 725.62 1595.88
  C 692.65 1580.46 660.21 1569.03 624.95 1557.05
  C 600.05 1548.59 568.26 1539.69 529.59 1530.36
  C 497.12 1522.52 465.84 1516.37 435.77 1511.90
  C 395.12 1505.85 357.19 1501.29 321.99 1498.21
  C 285.96 1495.05 250.46 1493.40 215.48 1493.27
  C 197.55 1493.20 178.15 1493.64 157.29 1494.58
  C 145.78 1495.10 130.09 1496.41 110.23 1498.51
  C 90.49 1500.60 74.83 1502.23 63.25 1503.38
  C 59.42 1503.76 58.10 1499.73 58.18 1496.45
  C 58.29 1491.85 59.08 1487.84 58.97 1482.83
  C 58.57 1465.03 59.88 1447.09 59.87 1437.25
  C 59.49 1074.22 59.51 709.96 59.92 344.48
  C 59.93 338.32 59.20 333.77 66.50 333.78
  C 86.05 333.83 110.32 333.70 139.32 333.40
  C 143.44 333.35 144.00 336.61 144.01 340.22
  C 144.02 360.21 144.10 411.90 144.25 495.29
  C 144.63 704.44 144.65 971.76 144.30 1297.27
  C 144.28 1316.94 144.82 1341.99 145.29 1361.17
  C 145.72 1378.47 144.62 1400.43 144.37 1413.49
  C 144.31 1416.52 145.17 1418.66 146.95 1419.92
  C 148.17 1420.78 150.48 1421.20 153.89 1421.19
  C 187.56 1421.06 218.18 1421.99 245.75 1423.97
  C 270.02 1425.71 297.04 1428.65 326.82 1432.78
  C 355.37 1436.75 382.11 1441.64 407.02 1447.46
  C 448.61 1457.18 489.11 1469.22 528.54 1483.57
  C 565.23 1496.93 604.64 1512.32 638.97 1528.76
  C 665.35 1541.39 697.02 1557.97 733.98 1578.51
  C 740.05 1581.88 747.63 1586.65 756.72 1592.84
  C 771.90 1603.17 788.00 1613.91 805.03 1625.07
  C 810.28 1628.51 814.03 1631.63 818.50 1635.90
  C 819.70 1637.05 821.66 1638.44 824.38 1640.09
  C 828.78 1642.74 833.25 1645.97 837.78 1649.77
  C 838.18 1650.10 838.40 1650.61 838.36 1651.14
  Z"
/>
<ellipse fill="#969a9c" cx="0.00" cy="0.00" transform="translate(1614.30,437.37) rotate(-62.0)" rx="28.43" ry="27.76"/>
<path fill="#969a9c" d="
  M 1713.65 428.30
  C 1714.00 822.27 1714.10 1216.26 1713.94 1610.25
  C 1713.93 1629.70 1714.02 1644.86 1714.19 1655.71
  C 1714.28 1661.83 1713.68 1666.36 1706.78 1666.34
  C 1530.69 1666.05 1421.84 1665.75 1380.25 1665.46
  C 1373.47 1665.41 1371.73 1660.22 1372.19 1653.91
  C 1372.33 1651.98 1372.49 1644.95 1372.68 1632.80
  C 1372.84 1622.09 1372.92 1615.06 1372.91 1611.70
  C 1372.69 1456.59 1372.92 1305.69 1373.61 1159.00
  C 1373.62 1156.57 1373.56 1153.98 1373.45 1151.24
  C 1373.38 1149.65 1373.11 1148.37 1372.64 1147.39
  C 1372.17 1146.41 1371.18 1145.78 1370.09 1145.78
  C 1243.61 1145.75 1117.33 1145.76 991.25 1145.79
  C 987.52 1145.79 986.62 1144.01 986.62 1140.44
  C 986.59 1101.58 986.53 1081.19 986.45 1079.27
  C 986.32 1076.02 987.42 1073.78 990.75 1073.78
  C 1125.30 1073.81 1266.55 1073.99 1414.50 1074.32
  C 1418.48 1074.33 1425.53 1074.18 1430.11 1076.15
  C 1430.83 1076.46 1431.66 1077.21 1432.59 1078.42
  C 1432.80 1078.69 1432.97 1078.99 1433.11 1079.31
  C 1437.46 1089.17 1443.75 1097.57 1451.98 1104.50
  C 1471.09 1120.59 1492.71 1124.72 1516.86 1116.90
  C 1528.24 1113.21 1537.33 1106.72 1545.33 1097.83
  C 1577.83 1061.70 1556.46 997.25 1506.89 989.64
  C 1475.65 984.84 1449.40 1000.39 1435.14 1027.62
  C 1432.88 1031.93 1430.04 1032.28 1425.02 1032.23
  C 1366.28 1031.57 1319.98 1031.59 1264.93 1031.81
  C 1174.24 1032.16 1083.03 1031.71 993.00 1031.07
  C 987.62 1031.03 986.66 1027.57 986.84 1022.68
  C 987.44 1006.45 987.23 989.83 986.21 972.82
  C 986.17 972.06 986.47 971.33 987.04 970.82
  C 988.96 969.11 991.28 968.26 994.00 968.26
  C 1123.95 968.39 1201.93 968.49 1227.92 968.56
  C 1293.61 968.74 1360.58 970.21 1426.01 968.34
  C 1432.75 968.15 1436.42 965.22 1441.37 959.97
  C 1453.89 946.70 1461.41 938.77 1463.93 936.18
  C 1491.54 907.80 1521.60 878.10 1548.37 850.29
  C 1560.66 837.53 1581.88 815.61 1612.02 784.53
  C 1615.32 781.13 1617.68 778.83 1619.11 777.62
  C 1625.37 772.32 1630.53 768.41 1632.94 761.32
  C 1633.61 759.35 1633.95 755.47 1633.96 749.69
  C 1634.09 639.96 1634.03 575.31 1633.78 555.75
  C 1633.70 549.42 1633.21 533.53 1632.32 508.07
  C 1632.25 506.03 1633.16 504.28 1635.05 502.82
  C 1644.05 495.83 1653.93 490.70 1661.86 482.33
  C 1674.11 469.42 1680.37 453.78 1680.65 435.40
  C 1691.20 431.56 1702.20 429.19 1713.65 428.30
  Z"
/>
<ellipse fill="#2f9fd2" cx="0.00" cy="0.00" transform="translate(713.29,555.66) rotate(-111.7)" rx="28.81" ry="28.29"/>
<rect fill="#2f9fd2" x="-27.98" y="-27.65" transform="translate(503.54,662.61) rotate(6.2)" width="55.96" height="55.30" rx="25.24"/>
<path fill="#2f9fd2" d="
  M 465.33 837.58
  C 471.84 847.09 473.03 857.69 468.89 869.40
  C 465.49 878.99 459.77 884.91 449.01 884.97
  C 443.72 885.00 438.79 884.99 434.42 883.12
  C 424.86 879.03 419.02 872.34 416.91 863.07
  C 413.94 850.02 419.18 837.24 431.44 831.42
  C 442.18 826.32 455.32 828.45 464.17 836.27
  C 464.61 836.66 465.00 837.10 465.33 837.58
  Z"
/>
<ellipse fill="#2f9fd2" cx="0.00" cy="0.00" transform="translate(826.20,909.97) rotate(-77.9)" rx="28.43" ry="27.98"/>
<ellipse fill="#969a9c" cx="0.00" cy="0.00" transform="translate(1496.07,1054.25) rotate(-84.8)" rx="27.82" ry="27.02"/>
</svg>
