<?xml version="1.0" encoding="UTF-8" standalone="no"?>
<!DOCTYPE svg PUBLIC "-//W3C//DTD SVG 1.1//EN" "http://www.w3.org/Graphics/SVG/1.1/DTD/svg11.dtd">
<svg xmlns="http://www.w3.org/2000/svg" version="1.1" viewBox="0.00 0.00 1773.00 1773.00">
<path fill="#2f9fd2" d="
  M 885.10 1005.74
  C 884.20 1005.74 883.48 1005.34 882.93 1004.55
  C 875.00 992.95 867.92 982.58 858.23 971.14
  C 853.51 965.56 848.91 959.97 844.42 954.36
  C 842.40 951.83 841.41 948.79 841.45 945.23
  C 841.93 897.11 841.97 853.23 841.57 801.91
  C 841.28 765.02 841.48 728.48 842.18 692.27
  C 842.22 690.03 843.00 688.46 844.53 687.55
  C 847.26 685.92 849.26 684.67 850.54 683.79
  C 862.62 675.44 865.60 661.30 860.53 647.95
  C 858.14 641.67 854.12 636.82 848.46 633.40
  C 836.17 626.00 821.56 627.34 811.03 637.27
  C 802.34 645.47 800.74 658.35 803.71 669.17
  C 805.84 676.93 812.28 683.65 819.53 687.34
  C 822.28 688.75 823.37 690.50 823.29 693.50
  C 823.13 699.56 823.21 713.78 823.53 736.16
  C 823.64 743.90 823.65 758.13 823.57 778.84
  C 823.19 874.85 823.00 925.15 822.99 929.74
  C 822.99 929.99 822.96 930.15 822.91 930.22
  C 822.59 930.62 822.01 930.67 821.63 930.33
  C 813.61 923.12 803.87 914.93 792.40 905.75
  C 789.62 903.53 789.86 899.75 789.82 895.85
  C 789.65 877.07 789.58 864.70 789.60 858.75
  C 789.87 791.56 789.87 725.58 789.62 660.83
  C 789.55 642.96 789.58 625.41 789.71 608.17
  C 789.99 572.79 790.41 555.77 789.56 530.75
  C 789.42 526.58 791.26 524.13 794.96 521.66
  C 799.61 518.56 803.72 514.43 806.68 509.69
  C 810.90 502.93 810.91 493.94 809.62 486.66
  C 807.64 475.51 796.97 467.21 786.47 464.56
  C 776.17 461.95 764.28 466.95 758.17 474.28
  C 748.75 485.59 747.52 501.99 756.93 514.06
  C 759.78 517.73 763.30 520.07 767.51 522.77
  C 770.25 524.52 770.92 527.02 770.92 530.44
  C 770.91 559.48 771.07 585.83 771.38 609.50
  C 771.55 622.98 771.60 631.98 771.53 636.51
  C 771.31 649.06 771.77 661.21 771.61 672.52
  C 770.74 735.33 770.63 794.91 771.28 851.26
  C 771.41 862.52 771.31 874.14 770.96 886.11
  C 770.92 887.35 769.56 888.08 768.51 887.43
  C 760.79 882.66 753.91 878.64 747.86 875.39
  C 744.82 873.76 743.29 870.80 743.28 866.53
  C 743.23 857.33 743.81 842.37 743.71 829.82
  C 743.49 801.55 743.39 784.49 743.41 778.62
  C 743.63 718.87 743.21 659.20 743.37 599.25
  C 743.37 599.01 743.35 598.78 743.30 598.55
  C 742.27 593.36 739.63 588.76 735.40 584.77
  C 726.67 576.54 719.31 569.26 713.32 562.94
  C 710.98 560.47 711.66 557.94 713.24 554.34
  C 713.46 553.84 713.62 553.32 713.72 552.79
  C 715.35 544.04 714.08 536.27 709.92 529.47
  C 703.46 518.92 690.02 511.85 677.35 515.05
  C 661.51 519.05 652.51 530.78 653.45 547.58
  C 653.98 557.11 658.16 564.68 665.99 570.31
  C 673.56 575.76 686.78 578.25 695.53 573.79
  C 696.18 573.46 696.96 573.58 697.48 574.08
  C 699.47 575.99 706.45 582.57 718.40 593.84
  C 725.28 600.32 724.76 606.83 724.75 615.75
  C 724.73 652.42 725.00 682.69 724.64 722.08
  C 724.27 762.59 724.45 801.23 725.16 838.00
  C 725.30 845.23 725.22 852.21 724.91 858.94
  C 724.87 859.85 724.07 860.54 723.16 860.44
  C 721.53 860.26 719.91 859.75 718.32 858.92
  C 713.94 856.65 708.98 853.94 703.44 850.80
  C 701.15 849.50 700.01 847.56 700.03 844.99
  C 700.22 820.41 700.24 796.36 700.09 772.84
  C 700.04 765.10 700.66 755.78 699.96 747.51
  C 699.53 742.44 697.06 739.09 693.32 735.17
  C 689.91 731.59 683.66 725.42 674.56 716.67
  C 669.72 712.02 666.00 708.24 665.64 701.61
  C 665.47 698.40 665.25 688.11 664.99 670.74
  C 664.90 664.59 671.26 662.86 675.00 659.20
  C 679.72 654.59 682.91 649.07 684.57 642.64
  C 687.47 631.45 685.12 621.92 677.51 614.04
  C 659.22 595.08 632.82 606.33 626.13 628.84
  C 624.46 634.47 624.65 639.95 626.70 645.28
  C 630.16 654.25 636.36 659.22 644.33 664.00
  C 645.55 664.73 646.29 666.05 646.28 667.46
  C 646.21 689.63 646.20 703.98 646.25 710.50
  C 646.28 714.20 649.56 718.26 652.07 720.69
  C 660.95 729.28 669.73 737.83 678.41 746.36
  C 680.60 748.52 681.71 750.90 681.73 753.49
  C 681.80 761.43 681.70 785.27 681.45 825.00
  C 681.42 828.45 681.50 833.10 681.67 838.95
  C 681.69 839.68 681.17 840.32 680.45 840.45
  C 679.36 840.65 678.25 840.54 677.12 840.12
  C 653.26 831.21 629.85 824.42 606.90 819.77
  C 606.03 819.60 605.41 818.83 605.41 817.94
  L 605.41 288.02
  C 605.41 287.40 605.83 286.85 606.43 286.70
  C 606.85 286.60 607.37 286.59 608.00 286.68
  C 626.68 289.43 644.58 292.93 662.71 298.30
  C 684.35 304.71 705.38 311.50 725.67 321.35
  C 751.78 334.02 776.93 347.81 799.12 365.40
  C 808.67 372.97 817.35 380.22 825.17 387.14
  C 832.19 393.37 840.03 401.51 848.69 411.56
  C 858.77 423.26 868.61 435.90 878.21 449.47
  C 881.45 454.04 883.53 458.34 884.44 462.37
  C 885.08 465.18 885.37 470.73 885.32 479.01
  C 884.99 527.44 885.06 571.30 885.52 610.59
  C 885.97 649.05 884.93 685.39 884.67 724.25
  C 884.62 732.79 885.06 742.31 885.04 750.93
  C 884.94 800.94 884.91 870.21 884.96 958.75
  C 884.96 959.94 884.91 968.77 884.82 985.25
  C 884.78 993.04 885.00 999.73 885.49 1005.32
  C 885.51 1005.55 885.33 1005.74 885.10 1005.74
  Z"
/>
<path fill="#2f9fd2" d="
  M 1244.64 435.81
  L 1229.32 439.21
  C 1228.32 429.77 1224.41 422.09 1217.60 416.16
  C 1206.75 406.73 1192.54 407.46 1180.99 414.73
  C 1174.69 418.70 1170.72 424.71 1169.08 432.76
  C 1166.78 444.06 1169.41 453.73 1176.98 461.76
  C 1179.96 464.92 1184.27 467.17 1187.55 470.08
  C 1188.49 470.91 1189.10 471.66 1189.39 472.32
  C 1189.54 472.67 1189.60 473.05 1189.57 473.42
  C 1188.88 481.83 1188.46 490.53 1188.33 499.50
  C 1187.99 523.35 1187.80 549.93 1187.76 579.23
  C 1187.76 584.91 1184.61 587.96 1179.90 592.57
  C 1165.11 607.07 1151.12 621.93 1135.99 636.84
  C 1130.62 642.15 1123.65 649.40 1115.09 658.59
  C 1112.16 661.73 1109.66 664.06 1107.58 665.57
  C 1105.62 667.00 1103.17 667.67 1100.23 667.59
  C 1051.42 666.32 972.38 668.27 909.83 667.45
  C 907.34 667.42 906.87 665.92 906.87 663.63
  C 906.88 650.66 906.92 642.88 907.00 640.28
  C 907.07 638.25 908.98 637.75 910.84 637.75
  C 949.10 637.75 981.68 637.90 1008.58 638.19
  C 1033.75 638.47 1058.85 638.13 1079.26 637.86
  C 1084.65 637.79 1089.25 636.11 1093.06 632.82
  C 1096.80 629.59 1101.43 624.49 1106.03 619.44
  C 1114.68 609.92 1120.93 603.36 1124.78 599.77
  C 1131.87 593.14 1138.71 586.23 1145.30 579.06
  C 1149.89 574.07 1150.40 570.65 1150.29 563.56
  C 1150.05 547.54 1150.28 523.34 1149.93 506.81
  C 1149.36 479.94 1148.86 454.46 1149.48 428.00
  C 1149.81 413.74 1149.95 403.86 1149.89 398.37
  C 1149.87 396.79 1150.71 395.33 1152.08 394.55
  C 1154.20 393.34 1156.35 391.92 1158.54 390.30
  C 1181.74 373.13 1170.69 339.18 1143.85 335.52
  C 1137.80 334.69 1131.98 335.84 1126.39 338.96
  C 1115.69 344.95 1110.33 353.75 1110.31 365.37
  C 1110.29 380.54 1117.50 389.72 1130.43 396.07
  C 1130.89 396.30 1131.18 396.77 1131.18 397.28
  C 1130.91 450.36 1130.28 505.97 1130.82 562.00
  C 1130.86 565.59 1128.60 569.14 1125.58 572.25
  C 1109.17 589.12 1099.97 598.66 1084.36 616.36
  C 1081.83 619.23 1078.69 619.82 1074.55 619.88
  C 1073.58 619.89 1064.79 619.70 1048.19 619.31
  C 1041.79 619.16 1033.00 619.08 1021.81 619.09
  C 964.32 619.12 926.97 619.19 909.75 619.28
  C 907.23 619.30 906.78 617.87 906.84 615.56
  C 907.18 604.25 907.38 594.91 907.43 587.56
  C 907.45 585.23 908.03 584.31 910.50 584.30
  C 966.09 584.13 1023.51 583.96 1082.74 583.79
  C 1084.07 583.78 1084.94 583.12 1085.36 581.79
  C 1085.41 581.62 1085.44 581.45 1085.45 581.27
  C 1085.61 577.19 1085.69 574.43 1085.69 573.00
  C 1085.77 428.23 1085.93 335.74 1086.18 295.51
  C 1086.20 292.21 1085.72 286.90 1089.80 286.84
  C 1099.29 286.71 1107.52 286.69 1114.50 286.76
  C 1154.34 287.18 1194.92 287.19 1236.25 286.80
  C 1239.15 286.77 1241.20 286.86 1242.41 287.07
  C 1244.92 287.51 1245.43 289.32 1245.31 291.81
  C 1245.15 295.13 1244.86 301.62 1244.87 306.65
  C 1244.97 349.69 1244.89 392.74 1244.64 435.81
  Z"
/>
<path fill="#2077ae" d="
  M 828.31 967.68
  C 828.37 967.90 828.14 968.10 827.93 968.00
  C 824.86 966.60 821.84 965.32 818.92 963.30
  C 793.29 945.59 766.16 930.23 737.54 917.22
  C 718.70 908.65 704.26 903.81 682.04 896.51
  C 636.85 881.66 590.49 873.58 542.95 872.27
  C 542.33 872.26 541.78 871.91 541.50 871.36
  C 540.97 870.34 540.71 869.07 540.73 867.54
  C 541.02 838.91 541.15 809.40 541.14 779.00
  C 541.09 663.51 541.13 547.84 541.24 431.99
  C 541.27 398.81 540.95 372.15 541.22 342.97
  C 541.24 341.72 542.30 340.75 543.54 340.85
  C 549.54 341.32 552.64 341.56 552.84 341.57
  C 561.21 342.11 569.81 343.50 577.97 344.03
  C 581.58 344.27 580.78 350.85 580.78 353.50
  C 580.79 397.58 580.25 439.23 580.65 483.16
  C 581.00 522.06 580.46 566.68 580.64 605.62
  C 580.79 638.44 580.81 667.37 580.69 692.40
  C 580.43 745.37 580.97 791.97 580.89 838.75
  C 580.88 839.57 581.48 840.28 582.30 840.42
  C 590.48 841.79 601.83 843.38 610.10 845.72
  C 618.55 848.10 626.48 849.51 635.87 852.42
  C 652.13 857.45 669.25 862.84 685.81 869.40
  C 687.46 870.05 693.92 873.07 705.21 878.45
  C 727.36 889.00 748.70 902.43 768.14 916.02
  C 776.23 921.68 785.39 928.86 795.60 937.55
  C 804.53 945.15 813.26 952.87 821.80 960.72
  C 824.13 962.87 827.83 966.02 828.31 967.68
  Z"
/>
<ellipse fill="#2f9fd2" cx="0.00" cy="0.00" transform="translate(1140.90,366.13) rotate(-7.5)" rx="13.30" ry="12.84"/>
<path fill="#969a9c" d="
  M 837.91 1003.45
  C 836.64 1002.38 835.85 1001.77 835.56 1001.64
  C 825.86 997.16 823.09 995.84 812.35 990.10
  C 803.62 985.43 794.03 981.48 783.13 976.38
  C 773.40 971.83 759.79 966.62 742.28 960.74
  C 712.39 950.71 681.31 943.27 649.03 938.43
  C 607.75 932.24 567.76 929.03 526.76 930.58
  C 510.95 931.18 499.25 932.76 478.89 934.86
  C 477.85 934.97 476.89 934.27 476.69 933.24
  C 476.20 930.78 476.93 928.10 476.86 925.60
  C 476.66 918.51 477.24 910.55 477.23 903.14
  C 477.09 698.06 477.11 528.60 477.29 394.75
  C 477.29 393.04 478.11 392.19 479.76 392.19
  C 489.98 392.19 501.42 392.11 514.08 391.96
  C 515.29 391.94 516.28 392.92 516.29 394.14
  C 516.61 536.35 516.67 682.34 516.46 832.11
  C 516.43 852.06 517.56 876.72 516.47 894.00
  C 516.41 894.97 516.89 895.75 517.91 896.35
  C 518.39 896.63 519.33 896.76 520.73 896.75
  C 545.87 896.42 572.07 898.11 599.34 901.82
  C 646.51 908.24 691.13 922.51 734.96 941.64
  C 752.44 949.26 770.42 958.85 787.80 968.44
  C 791.45 970.45 794.45 972.25 796.79 973.83
  C 805.80 979.91 815.05 986.08 824.53 992.34
  C 825.42 992.93 826.79 994.06 828.65 995.75
  C 831.56 998.39 835.22 1000.24 838.27 1003.04
  C 838.38 1003.14 838.38 1003.31 838.28 1003.42
  L 838.28 1003.43
  C 838.18 1003.53 838.02 1003.54 837.91 1003.45
  Z"
/>
<ellipse fill="#969a9c" cx="0.00" cy="0.00" transform="translate(1198.55,440.22) rotate(-62.1)" rx="13.19" ry="12.88"/>
<path fill="#969a9c" d="
  M 1244.64 435.81
  C 1244.87 675.28 1244.92 865.94 1244.77 1007.78
  C 1244.76 1009.95 1242.95 1010.43 1241.00 1010.42
  C 1151.46 1010.31 1100.97 1010.17 1089.52 1010.02
  C 1086.72 1009.98 1086.18 1007.54 1086.23 1005.02
  C 1086.44 995.09 1086.55 989.00 1086.54 986.75
  C 1086.42 913.44 1086.53 843.10 1086.87 775.75
  C 1086.88 773.82 1086.76 771.93 1086.52 770.06
  C 1086.44 769.41 1085.89 768.93 1085.24 768.93
  L 908.82 768.93
  C 907.98 768.93 907.30 768.25 907.30 767.41
  L 907.30 737.28
  C 907.30 736.32 908.08 735.54 909.04 735.54
  C 982.76 735.58 1048.08 735.65 1105.00 735.74
  C 1106.73 735.74 1108.48 735.82 1110.25 735.99
  C 1112.56 736.21 1113.62 736.38 1114.74 738.69
  C 1118.41 746.29 1124.07 751.74 1131.70 755.05
  C 1146.36 761.42 1165.03 753.98 1171.41 739.13
  C 1178.89 721.70 1167.85 699.06 1148.50 696.46
  C 1133.86 694.49 1121.97 701.43 1115.19 714.42
  C 1114.67 715.41 1113.65 716.03 1112.54 716.03
  L 910.20 716.03
  C 908.69 716.03 907.47 714.81 907.47 713.30
  L 907.47 689.00
  C 907.47 687.68 908.54 686.61 909.86 686.61
  C 959.91 686.56 996.45 686.61 1019.50 686.74
  C 1060.93 686.98 1083.18 687.08 1086.25 687.04
  C 1101.04 686.87 1109.38 686.72 1111.25 686.61
  C 1114.17 686.44 1115.96 685.28 1118.06 682.99
  C 1122.87 677.74 1128.44 671.92 1134.79 665.54
  C 1152.34 647.91 1173.39 626.33 1197.94 600.81
  C 1202.09 596.50 1207.65 594.05 1207.66 587.10
  C 1207.73 540.52 1208.17 506.28 1206.89 473.00
  C 1206.84 471.91 1207.48 470.92 1208.80 470.05
  C 1211.25 468.43 1213.57 466.83 1215.78 465.25
  C 1224.43 459.07 1229.19 450.01 1229.32 439.21
  L 1244.64 435.81
  Z"
/>
<ellipse fill="#2f9fd2" cx="0.00" cy="0.00" transform="translate(780.47,495.11) rotate(-111.4)" rx="13.36" ry="13.12"/>
<rect fill="#2f9fd2" x="-12.97" y="-12.82" transform="translate(683.14,544.73) rotate(7.2)" width="25.94" height="25.64" rx="11.69"/>
<path fill="#2f9fd2" d="
  M 663.22 624.08
  C 669.04 627.68 668.92 636.38 666.61 641.96
  C 665.04 645.79 662.09 647.78 657.76 647.94
  C 653.43 648.11 649.94 647.06 647.28 644.81
  C 643.04 641.21 641.41 635.23 643.33 630.07
  C 646.32 622.03 655.76 619.46 663.22 624.08
  Z"
/>
<circle fill="#2f9fd2" cx="832.86" cy="659.51" r="13.08"/>
<ellipse fill="#969a9c" cx="0.00" cy="0.00" transform="translate(1143.69,726.46) rotate(-84.9)" rx="12.90" ry="12.53"/>
<path fill="#2f9fd2" d="
  M 1012.92 1138.61
  C 1045.70 1159.24 1064.10 1197.34 1064.98 1235.33
  C 1065.52 1258.80 1060.20 1283.73 1047.07 1303.84
  C 1015.10 1352.80 952.78 1369.06 898.18 1352.17
  C 866.29 1342.30 842.65 1322.76 827.28 1293.55
  C 817.21 1274.40 814.46 1255.40 814.58 1233.47
  C 814.92 1173.32 862.69 1125.30 921.79 1119.37
  C 930.04 1118.54 939.76 1118.41 950.97 1118.98
  C 961.51 1119.51 971.09 1121.05 979.70 1123.60
  C 991.48 1127.08 1002.55 1132.08 1012.92 1138.61
  Z
  M 1007.94 1219.18
  C 1000.10 1181.65 964.63 1159.86 927.34 1165.74
  C 908.43 1168.72 892.92 1178.50 880.80 1195.09
  C 867.83 1212.82 867.17 1239.30 871.90 1259.97
  C 875.96 1277.76 887.37 1291.26 902.42 1301.34
  C 915.34 1310.00 932.37 1312.89 947.64 1311.56
  C 964.41 1310.09 978.46 1303.54 989.79 1291.91
  C 1008.00 1273.21 1013.12 1244.01 1007.94 1219.18
  Z"
/>
<path fill="#2f9fd2" d="
  M 153.62 1258.23
  C 153.41 1258.29 153.27 1258.48 153.26 1258.69
  C 152.72 1278.90 152.39 1291.78 152.26 1297.33
  C 151.91 1312.11 152.64 1335.15 152.15 1352.05
  C 152.07 1354.55 151.09 1354.85 148.72 1354.86
  C 131.86 1354.91 115.94 1354.92 100.97 1354.87
  C 99.23 1354.86 98.36 1353.85 98.37 1351.83
  C 98.70 1260.96 98.71 1186.35 98.40 1128.01
  C 98.39 1127.54 98.44 1126.45 98.54 1124.72
  C 98.56 1124.39 98.67 1124.08 98.87 1123.81
  C 99.53 1122.91 100.57 1122.47 102.00 1122.50
  C 115.62 1122.75 131.29 1122.74 149.01 1122.49
  C 151.53 1122.46 152.74 1123.65 152.65 1126.07
  C 152.51 1129.67 152.31 1151.40 152.05 1191.25
  C 152.02 1196.13 152.27 1201.99 152.82 1208.83
  C 152.91 1209.89 153.77 1210.71 154.83 1210.75
  C 183.62 1211.82 213.51 1211.98 244.50 1211.24
  C 248.52 1211.15 252.34 1210.94 255.96 1210.62
  C 256.20 1210.60 256.38 1210.40 256.39 1210.16
  C 256.87 1180.95 256.99 1152.58 256.76 1125.04
  C 256.75 1123.09 257.84 1122.12 260.04 1122.14
  C 272.80 1122.27 288.86 1122.38 308.22 1122.47
  C 309.95 1122.48 310.81 1123.49 310.80 1125.51
  C 310.57 1152.17 310.42 1209.00 310.36 1296.00
  C 310.35 1309.43 310.47 1325.43 310.73 1344.00
  C 310.76 1346.64 310.64 1349.74 310.37 1353.29
  C 310.30 1354.20 309.54 1354.90 308.63 1354.90
  L 259.40 1354.90
  C 258.66 1354.90 257.99 1354.49 257.65 1353.83
  C 257.06 1352.68 256.75 1351.24 256.71 1349.50
  C 256.58 1342.93 256.55 1337.68 256.61 1333.75
  C 256.98 1309.02 256.95 1284.54 256.52 1260.29
  C 256.50 1259.04 255.57 1258.00 254.34 1257.82
  C 253.17 1257.65 251.64 1257.55 249.77 1257.52
  C 212.14 1256.86 180.46 1257.02 154.75 1257.99
  C 154.56 1258.00 154.19 1258.08 153.62 1258.23
  Z"
/>
<path fill="#2f9fd2" d="
  M 415.69 1257.98
  L 415.69 1308.75
  C 415.69 1309.35 416.15 1309.84 416.75 1309.89
  C 423.38 1310.38 429.46 1310.62 435.00 1310.63
  C 455.20 1310.65 472.28 1310.73 486.25 1310.87
  C 504.70 1311.06 521.86 1310.38 540.24 1310.78
  C 542.66 1310.83 543.29 1312.33 543.38 1314.68
  C 543.92 1327.83 544.00 1339.87 543.62 1350.80
  C 543.57 1352.31 543.10 1353.46 542.23 1354.27
  C 541.85 1354.62 541.36 1354.82 540.84 1354.84
  C 539.43 1354.90 532.65 1354.85 520.50 1354.68
  C 481.44 1354.15 450.19 1354.01 426.75 1354.27
  C 404.24 1354.52 383.48 1354.74 364.47 1354.93
  C 363.57 1354.94 362.79 1354.30 362.65 1353.41
  C 362.37 1351.72 362.16 1349.58 362.02 1347.00
  C 361.83 1343.44 361.90 1331.50 362.22 1311.18
  C 362.35 1302.79 362.42 1290.84 362.42 1275.33
  C 362.43 1207.13 362.33 1157.68 362.13 1126.98
  C 362.11 1123.68 362.76 1122.28 366.25 1122.31
  C 395.28 1122.56 451.81 1122.61 535.82 1122.46
  C 538.08 1122.46 538.65 1124.90 538.64 1126.98
  C 538.63 1136.44 538.59 1146.45 538.52 1157.00
  C 538.51 1159.46 538.32 1161.77 537.97 1163.93
  C 537.83 1164.80 537.12 1165.48 536.24 1165.57
  C 535.14 1165.70 532.98 1165.77 529.75 1165.79
  C 520.85 1165.86 486.85 1165.90 427.75 1165.92
  C 424.24 1165.92 420.60 1166.15 416.83 1166.60
  C 416.13 1166.68 415.61 1167.27 415.61 1167.98
  L 415.61 1212.31
  C 415.61 1213.27 416.28 1214.10 417.22 1214.30
  C 418.93 1214.67 420.61 1214.87 422.26 1214.89
  C 431.35 1215.02 440.09 1215.01 448.50 1214.84
  C 469.81 1214.43 493.95 1214.19 520.92 1214.12
  C 522.88 1214.11 523.76 1214.91 523.78 1216.94
  C 523.94 1231.70 523.87 1244.29 523.57 1254.72
  C 523.53 1256.04 522.45 1257.09 521.12 1257.09
  L 416.58 1257.09
  C 416.09 1257.09 415.69 1257.49 415.69 1257.98
  Z"
/>
<path fill="#2f9fd2" d="
  M 637.67 1353.53
  C 637.58 1354.31 636.92 1354.89 636.14 1354.89
  L 586.32 1354.89
  C 585.22 1354.89 584.26 1354.13 584.02 1353.05
  C 583.72 1351.66 583.57 1349.81 583.56 1347.50
  C 583.45 1298.72 583.55 1224.64 583.85 1125.26
  C 583.86 1123.64 584.66 1122.81 586.27 1122.76
  C 592.70 1122.55 598.77 1122.45 604.50 1122.44
  C 652.94 1122.39 675.82 1122.13 696.75 1122.75
  C 706.83 1123.06 714.24 1123.42 723.64 1126.05
  C 734.69 1129.14 745.73 1134.78 756.77 1142.95
  C 779.78 1160.00 787.11 1185.38 785.18 1213.25
  C 784.29 1226.08 780.64 1237.77 774.23 1248.33
  C 766.57 1260.91 753.96 1270.56 740.74 1277.44
  C 739.76 1277.95 739.44 1279.20 740.06 1280.12
  L 789.43 1352.74
  C 790.00 1353.58 789.40 1354.71 788.39 1354.71
  C 767.00 1354.70 749.21 1354.71 735.02 1354.72
  C 733.36 1354.72 732.18 1354.56 731.49 1354.25
  C 731.20 1354.12 730.95 1353.92 730.75 1353.67
  C 728.38 1350.61 727.03 1348.82 726.69 1348.31
  C 721.24 1340.00 709.09 1321.10 690.23 1291.61
  C 687.94 1288.03 685.84 1287.74 682.00 1287.70
  C 667.55 1287.53 653.57 1287.58 640.05 1287.84
  C 639.10 1287.86 638.33 1288.63 638.33 1289.58
  C 638.34 1309.63 638.33 1326.68 638.30 1340.75
  C 638.29 1345.64 638.08 1349.90 637.67 1353.53
  Z
  M 638.79 1167.44
  L 638.39 1242.62
  C 638.39 1243.28 638.92 1243.81 639.58 1243.82
  L 691.00 1244.09
  C 712.54 1244.20 730.09 1227.70 730.20 1207.23
  L 730.22 1203.79
  C 730.33 1183.32 712.95 1166.64 691.40 1166.53
  L 639.98 1166.26
  C 639.33 1166.25 638.79 1166.78 638.79 1167.44
  Z"
/>
<path fill="#2f9fd2" d="
  M 1263.09 1260.09
  C 1263.09 1258.68 1262.88 1257.09 1262.47 1255.33
  C 1262.37 1254.89 1262.32 1254.44 1262.32 1253.99
  C 1262.55 1223.58 1262.71 1204.34 1262.81 1196.25
  C 1263.03 1178.32 1261.92 1149.16 1262.46 1124.34
  C 1262.49 1123.24 1263.39 1122.36 1264.49 1122.35
  C 1277.04 1122.30 1289.54 1122.31 1302.00 1122.38
  C 1304.95 1122.39 1307.94 1122.38 1310.99 1122.34
  C 1312.42 1122.33 1313.64 1122.60 1314.63 1123.17
  C 1315.39 1123.61 1315.85 1124.44 1315.83 1125.32
  C 1315.38 1139.77 1315.33 1154.66 1315.68 1170.01
  C 1315.95 1181.90 1315.99 1190.90 1315.82 1197.01
  C 1315.48 1208.80 1316.10 1221.94 1315.90 1233.01
  C 1315.49 1256.37 1315.52 1280.89 1316.00 1306.58
  C 1316.32 1323.39 1315.99 1334.88 1315.84 1351.26
  C 1315.82 1353.50 1314.65 1354.62 1312.33 1354.63
  C 1293.98 1354.69 1281.46 1354.70 1274.77 1354.65
  C 1273.69 1354.64 1272.51 1354.32 1271.22 1353.70
  C 1270.94 1353.56 1270.69 1353.38 1270.46 1353.17
  C 1269.90 1352.64 1268.79 1351.41 1267.12 1349.47
  C 1262.13 1343.66 1247.33 1325.78 1222.73 1295.85
  C 1217.08 1288.97 1207.30 1276.57 1193.39 1258.64
  C 1190.01 1254.29 1178.36 1239.90 1158.43 1215.49
  C 1158.38 1215.42 1158.31 1215.37 1158.23 1215.33
  L 1157.65 1214.99
  C 1157.15 1214.70 1156.51 1215.06 1156.50 1215.64
  C 1155.48 1260.55 1156.84 1322.43 1156.62 1349.70
  C 1156.61 1350.51 1156.50 1351.47 1156.28 1352.59
  C 1156.04 1353.83 1154.97 1354.72 1153.71 1354.73
  L 1105.18 1354.92
  C 1105.05 1354.92 1104.93 1354.90 1104.81 1354.85
  C 1103.42 1354.32 1102.70 1353.20 1102.67 1351.50
  C 1102.54 1345.12 1102.48 1338.95 1102.50 1333.00
  C 1102.61 1298.89 1102.72 1249.25 1102.81 1184.08
  C 1102.83 1166.61 1103.43 1143.29 1103.25 1124.78
  C 1103.23 1122.87 1104.97 1122.42 1106.71 1122.44
  C 1118.34 1122.54 1130.77 1122.51 1143.99 1122.35
  C 1149.84 1122.29 1152.14 1126.01 1155.64 1129.98
  C 1156.98 1131.50 1157.80 1132.45 1158.09 1132.82
  C 1167.10 1144.31 1174.87 1154.05 1181.38 1162.04
  C 1203.18 1188.76 1218.55 1208.40 1244.71 1240.92
  C 1250.48 1248.09 1256.08 1254.33 1261.56 1260.66
  C 1262.09 1261.27 1263.09 1260.90 1263.09 1260.09
  Z"
/>
<path fill="#2f9fd2" d="
  M 1682.45 1353.14
  C 1683.05 1353.93 1682.47 1355.06 1681.48 1355.05
  C 1659.33 1354.82 1639.51 1354.81 1622.02 1355.02
  C 1620.73 1355.03 1619.71 1354.55 1618.94 1353.57
  C 1614.49 1347.85 1610.33 1341.93 1607.17 1337.04
  C 1594.22 1317.01 1581.97 1298.61 1570.43 1281.82
  C 1568.91 1279.61 1567.32 1277.71 1565.67 1276.13
  C 1564.88 1275.38 1563.61 1275.53 1563.00 1276.43
  C 1545.00 1303.32 1528.41 1328.34 1513.23 1351.50
  C 1511.66 1353.90 1509.17 1355.08 1505.76 1355.04
  C 1489.29 1354.83 1470.91 1354.78 1450.61 1354.89
  C 1449.76 1354.90 1449.12 1354.10 1449.32 1353.27
  C 1449.57 1352.23 1450.09 1351.18 1450.87 1350.12
  C 1461.72 1335.52 1465.99 1329.68 1479.20 1310.46
  C 1494.34 1288.43 1508.06 1269.73 1525.21 1246.21
  C 1527.51 1243.05 1529.48 1239.94 1531.13 1236.87
  C 1531.67 1235.87 1531.63 1234.65 1531.04 1233.67
  C 1529.90 1231.78 1528.42 1229.61 1526.59 1227.15
  C 1508.46 1202.70 1488.51 1174.74 1466.74 1143.27
  C 1463.13 1138.04 1458.97 1132.16 1454.27 1125.61
  C 1453.41 1124.42 1454.23 1122.76 1455.70 1122.71
  C 1473.87 1122.16 1492.29 1122.24 1510.96 1122.94
  C 1513.54 1123.04 1515.69 1124.35 1517.40 1126.87
  C 1534.33 1151.70 1548.53 1173.00 1559.99 1190.76
  C 1561.12 1192.49 1562.50 1194.02 1564.14 1195.34
  C 1564.88 1195.93 1565.96 1195.85 1566.59 1195.14
  C 1567.90 1193.69 1569.15 1192.10 1570.34 1190.35
  C 1584.68 1169.48 1597.67 1150.47 1609.30 1133.32
  C 1610.50 1131.55 1612.58 1128.71 1615.53 1124.80
  C 1617.70 1121.92 1623.49 1122.28 1627.75 1122.32
  C 1639.01 1122.43 1654.09 1122.46 1673.00 1122.42
  C 1673.45 1122.42 1673.75 1122.44 1673.90 1122.49
  C 1675.12 1122.84 1675.62 1124.29 1674.88 1125.32
  C 1670.72 1131.10 1668.02 1135.33 1664.81 1139.67
  C 1647.77 1162.72 1630.38 1186.80 1612.63 1211.89
  C 1608.36 1217.92 1604.20 1224.10 1600.14 1230.42
  C 1598.77 1232.55 1598.68 1234.60 1599.89 1236.59
  C 1603.88 1243.16 1611.41 1254.24 1622.48 1269.85
  C 1646.24 1303.35 1662.88 1327.06 1682.45 1353.14
  Z"
/>
<rect fill="#2f9fd2" x="-27.22" y="-116.12" transform="translate(1394.38,1238.82) rotate(0.1)" width="54.44" height="232.24" rx="3.18"/>
<path fill="#969a9c" d="
  M 428.02 1471.25
  C 429.04 1472.27 429.04 1473.92 428.02 1474.94
  C 416.27 1486.63 399.27 1490.11 383.65 1485.59
  C 364.68 1480.11 351.25 1463.10 352.21 1442.97
  C 352.49 1437.08 353.26 1432.45 354.51 1429.08
  C 361.11 1411.27 377.69 1399.91 396.74 1400.25
  C 406.39 1400.43 415.49 1403.58 424.03 1409.71
  C 425.78 1410.96 427.13 1412.72 428.08 1414.98
  C 428.42 1415.80 428.21 1416.74 427.55 1417.33
  L 418.45 1425.52
  C 418.09 1425.85 417.54 1425.82 417.21 1425.46
  C 411.27 1418.87 404.16 1415.79 395.89 1416.21
  C 380.79 1416.98 370.81 1428.03 370.67 1443.24
  C 370.58 1453.90 374.54 1461.79 382.57 1466.92
  C 388.90 1470.96 396.09 1471.91 403.53 1470.53
  C 409.09 1469.49 412.57 1466.37 417.21 1462.71
  C 417.93 1462.14 418.97 1462.20 419.61 1462.85
  L 428.02 1471.25
  Z"
/>
<path fill="#969a9c" d="
  M 1408.82 1420.59
  C 1400.68 1416.00 1393.77 1413.77 1383.83 1415.20
  C 1377.63 1416.09 1373.91 1419.25 1372.68 1424.66
  C 1371.64 1429.20 1378.36 1433.41 1382.21 1434.33
  C 1388.48 1435.84 1394.52 1437.37 1400.32 1438.90
  C 1405.47 1440.26 1409.89 1442.46 1413.58 1445.51
  C 1425.98 1455.76 1420.37 1476.45 1407.43 1483.15
  C 1395.40 1489.38 1380.12 1488.34 1367.38 1484.10
  C 1363.48 1482.80 1357.07 1481.21 1355.73 1476.53
  C 1353.59 1468.99 1359.27 1465.03 1366.12 1467.32
  C 1375.53 1470.47 1382.34 1472.29 1386.55 1472.80
  C 1391.38 1473.38 1395.85 1472.27 1399.96 1469.48
  C 1404.79 1466.20 1405.86 1460.40 1400.89 1456.78
  C 1398.38 1454.95 1396.04 1453.81 1393.87 1453.37
  C 1380.58 1450.69 1369.82 1449.31 1361.33 1441.51
  C 1356.30 1436.89 1356.33 1431.48 1356.58 1424.03
  C 1356.82 1416.46 1361.17 1409.41 1367.26 1406.09
  C 1381.22 1398.47 1395.74 1398.73 1410.36 1404.15
  C 1412.81 1405.06 1414.84 1406.47 1416.46 1408.39
  C 1416.72 1408.69 1416.80 1409.10 1416.69 1409.48
  C 1415.42 1413.79 1413.36 1417.42 1410.49 1420.36
  C 1410.05 1420.81 1409.37 1420.90 1408.82 1420.59
  Z"
/>
<path fill="#969a9c" d="
  M 723.42 1449.40
  C 721.23 1464.58 711.28 1479.39 696.41 1484.75
  C 677.15 1491.69 654.87 1486.38 643.07 1468.93
  C 637.38 1460.51 635.16 1450.50 636.42 1438.91
  C 637.86 1425.66 643.86 1415.50 654.42 1408.41
  C 668.65 1398.87 687.65 1398.03 702.90 1406.00
  C 718.84 1414.33 725.96 1431.86 723.42 1449.40
  Z
  M 654.56 1443.17
  C 654.23 1458.48 663.49 1470.10 679.27 1470.43
  C 695.05 1470.76 704.78 1459.54 705.10 1444.23
  C 705.43 1428.92 696.17 1417.31 680.39 1416.97
  C 664.61 1416.64 654.88 1427.86 654.56 1443.17
  Z"
/>
<path fill="#969a9c" d="
  M 863.01 1474.01
  C 864.37 1470.78 867.17 1463.76 872.00 1466.09
  C 882.33 1471.08 890.90 1473.80 902.30 1471.12
  C 908.26 1469.72 916.15 1464.68 909.39 1457.91
  C 903.46 1451.97 890.08 1451.17 882.54 1448.99
  C 874.10 1446.55 865.54 1440.86 864.11 1431.98
  C 863.65 1429.13 863.59 1425.82 863.94 1422.03
  C 864.67 1414.09 872.32 1406.88 879.51 1404.06
  C 891.71 1399.28 902.72 1400.00 915.60 1403.14
  C 922.19 1404.75 924.54 1408.87 922.65 1415.48
  C 921.31 1420.17 914.58 1420.24 911.11 1418.30
  C 903.42 1413.99 895.45 1413.62 887.18 1417.17
  C 882.59 1419.15 879.91 1424.82 883.18 1429.31
  C 885.01 1431.82 888.01 1433.62 892.18 1434.70
  C 899.27 1436.54 904.75 1437.95 908.60 1438.92
  C 911.01 1439.53 913.27 1440.62 915.30 1441.45
  C 932.82 1448.60 933.26 1471.60 918.14 1481.38
  C 913.54 1484.36 907.31 1486.35 899.44 1487.35
  C 888.94 1488.68 878.42 1486.79 867.88 1481.67
  C 865.00 1480.27 861.26 1478.17 863.01 1474.01
  Z"
/>
<path fill="#969a9c" d="
  M 1019.64 1465.87
  C 1020.25 1465.75 1021.04 1465.87 1022.00 1466.24
  C 1033.00 1470.40 1043.74 1473.21 1055.26 1471.33
  C 1057.97 1470.89 1060.81 1470.14 1062.58 1467.95
  C 1065.29 1464.58 1064.90 1461.11 1061.40 1457.54
  C 1055.55 1451.57 1044.75 1450.68 1037.73 1449.87
  C 1037.04 1449.79 1036.36 1449.63 1035.70 1449.38
  C 1027.21 1446.17 1020.24 1442.10 1017.05 1433.41
  C 1015.52 1429.22 1015.54 1424.79 1017.11 1420.10
  C 1020.83 1408.99 1029.03 1403.64 1040.41 1401.42
  C 1050.82 1399.39 1059.14 1400.98 1069.12 1403.43
  C 1074.76 1404.82 1077.33 1408.50 1076.83 1414.49
  C 1076.70 1415.97 1076.39 1417.11 1075.89 1417.91
  C 1075.71 1418.18 1075.49 1418.42 1075.23 1418.62
  C 1071.98 1421.07 1069.68 1420.79 1065.97 1418.73
  C 1058.71 1414.70 1050.82 1413.72 1042.30 1415.81
  C 1038.46 1416.75 1035.87 1419.02 1034.54 1422.61
  C 1032.47 1428.20 1037.02 1432.51 1042.01 1433.70
  C 1053.49 1436.44 1060.89 1438.32 1064.20 1439.34
  C 1070.90 1441.40 1077.54 1445.80 1080.15 1452.81
  C 1080.96 1454.97 1081.77 1459.96 1081.53 1462.79
  C 1079.18 1490.11 1045.54 1489.27 1026.82 1484.19
  C 1025.45 1483.82 1022.89 1482.67 1019.13 1480.74
  C 1018.66 1480.51 1018.29 1480.12 1018.08 1479.64
  C 1016.39 1475.89 1015.97 1472.23 1016.84 1468.66
  C 1017.19 1467.21 1018.29 1466.12 1019.64 1465.87
  Z"
/>
<path fill="#969a9c" d="
  M 1680.96 1471.91
  C 1681.18 1472.13 1681.21 1472.46 1681.05 1472.72
  C 1678.27 1477.14 1673.98 1480.01 1669.35 1482.64
  C 1662.26 1486.66 1654.37 1488.23 1645.68 1487.34
  C 1624.86 1485.21 1608.18 1471.74 1605.26 1450.47
  C 1602.70 1431.80 1610.83 1413.58 1628.18 1405.20
  C 1645.11 1397.03 1665.54 1399.46 1679.29 1412.21
  C 1682.28 1414.98 1679.53 1417.35 1677.01 1419.54
  C 1674.86 1421.41 1672.57 1423.16 1670.12 1424.80
  C 1669.65 1425.11 1669.03 1425.03 1668.66 1424.62
  C 1653.99 1408.71 1626.57 1416.65 1623.48 1438.66
  C 1622.12 1448.34 1624.81 1457.81 1632.22 1464.60
  C 1638.22 1470.09 1645.81 1472.15 1654.98 1470.77
  C 1661.08 1469.85 1664.45 1467.18 1669.43 1462.84
  C 1670.17 1462.19 1671.28 1462.23 1671.98 1462.92
  L 1680.96 1471.91
  Z"
/>
<path fill="#969a9c" d="
  M 320.67 1402.42
  C 321.03 1401.80 321.67 1401.40 322.38 1401.34
  C 326.17 1401.03 330.22 1401.06 334.52 1401.45
  C 337.18 1401.69 337.65 1403.66 337.62 1406.09
  C 337.52 1416.20 337.59 1428.08 337.84 1441.73
  C 337.92 1446.10 337.49 1451.72 336.55 1458.60
  C 333.89 1478.11 319.28 1487.69 300.36 1487.61
  C 287.48 1487.57 275.05 1481.83 268.91 1470.14
  C 266.38 1465.33 264.91 1459.29 264.51 1452.00
  C 263.64 1436.10 264.77 1419.60 264.65 1405.03
  C 264.64 1402.98 265.56 1401.74 267.77 1401.59
  C 270.31 1401.41 272.85 1401.38 275.39 1401.49
  C 277.81 1401.60 282.05 1401.27 282.00 1404.89
  C 281.77 1420.72 281.82 1436.58 282.16 1452.49
  C 282.36 1462.15 288.68 1470.62 298.69 1471.28
  C 313.73 1472.28 320.29 1462.39 320.35 1448.75
  C 320.40 1436.83 320.30 1421.84 320.06 1403.77
  C 320.05 1403.59 320.10 1403.41 320.19 1403.25
  L 320.67 1402.42
  Z"
/>
<path fill="#969a9c" d="
  M 1321.99 1434.89
  C 1321.78 1435.01 1321.65 1436.25 1321.59 1438.62
  C 1321.58 1439.04 1321.26 1439.39 1320.84 1439.45
  C 1319.87 1439.58 1319.12 1439.79 1318.57 1440.09
  C 1318.19 1440.31 1317.87 1440.63 1317.67 1441.02
  C 1314.25 1447.59 1308.80 1457.36 1301.32 1470.33
  C 1299.43 1473.60 1297.69 1475.96 1296.09 1477.42
  C 1292.19 1480.97 1288.28 1476.32 1286.50 1473.01
  C 1278.70 1458.55 1273.94 1449.56 1272.21 1446.04
  C 1271.11 1443.79 1269.19 1440.31 1266.45 1439.69
  C 1265.64 1439.51 1264.86 1440.13 1264.87 1440.97
  C 1264.94 1452.62 1264.77 1463.67 1264.36 1474.12
  C 1264.22 1477.60 1265.28 1481.15 1264.02 1484.66
  C 1263.88 1485.06 1263.52 1485.33 1263.10 1485.37
  C 1259.15 1485.72 1255.04 1485.75 1250.76 1485.45
  C 1248.22 1485.27 1247.49 1483.46 1247.55 1481.08
  C 1247.86 1468.85 1247.70 1457.35 1247.08 1446.58
  C 1246.60 1438.08 1247.29 1431.16 1247.73 1422.26
  C 1247.85 1419.91 1247.79 1414.07 1247.54 1404.76
  C 1247.49 1402.62 1248.66 1401.50 1251.05 1401.40
  C 1252.81 1401.32 1255.82 1401.31 1260.07 1401.38
  C 1262.78 1401.42 1264.76 1402.57 1266.01 1404.84
  C 1280.19 1430.57 1288.31 1445.09 1290.36 1448.39
  C 1291.27 1449.86 1292.42 1451.14 1293.82 1452.23
  C 1294.40 1452.68 1295.24 1452.51 1295.60 1451.87
  C 1306.57 1432.05 1315.64 1415.87 1322.81 1403.33
  C 1323.37 1402.36 1324.78 1401.88 1327.03 1401.90
  C 1330.86 1401.92 1334.02 1402.03 1336.50 1402.24
  C 1338.92 1402.43 1339.89 1403.54 1339.62 1406.04
  C 1339.28 1409.13 1339.06 1412.29 1339.10 1415.00
  C 1339.44 1435.79 1339.49 1456.37 1339.26 1476.75
  C 1339.25 1477.43 1339.42 1479.70 1339.77 1483.57
  C 1339.80 1483.88 1339.72 1484.19 1339.55 1484.45
  C 1338.89 1485.43 1337.71 1485.96 1336.00 1486.05
  C 1331.95 1486.25 1326.89 1486.73 1323.60 1485.17
  C 1322.70 1484.74 1322.14 1483.83 1322.16 1482.84
  L 1323.05 1440.97
  C 1323.06 1440.36 1323.00 1439.75 1322.85 1439.16
  C 1322.40 1437.37 1322.30 1436.12 1322.57 1435.40
  C 1322.70 1435.04 1322.32 1434.71 1321.99 1434.89
  Z"
/>
<path fill="#969a9c" d="
  M 1597.99 1471.02
  C 1598.48 1471.34 1598.78 1471.90 1598.78 1472.49
  L 1598.78 1484.15
  C 1598.78 1484.31 1598.73 1484.46 1598.64 1484.59
  C 1596.84 1487.11 1590.31 1485.44 1587.56 1485.50
  C 1574.15 1485.78 1559.80 1485.85 1544.50 1485.72
  C 1543.15 1485.71 1541.97 1485.49 1540.96 1485.05
  C 1540.35 1484.79 1539.95 1484.18 1539.96 1483.51
  C 1540.22 1456.65 1541.03 1431.99 1540.09 1405.50
  C 1540.02 1403.44 1541.09 1402.20 1543.30 1401.79
  C 1546.77 1401.16 1553.65 1400.70 1557.20 1402.56
  C 1557.89 1402.92 1558.31 1403.64 1558.29 1404.42
  C 1557.86 1423.43 1557.80 1443.25 1558.11 1463.89
  C 1558.14 1465.88 1558.23 1467.25 1558.37 1468.02
  C 1558.63 1469.35 1559.78 1470.31 1561.13 1470.32
  C 1570.00 1470.40 1581.69 1470.39 1596.22 1470.30
  C 1596.66 1470.30 1597.25 1470.54 1597.99 1471.02
  Z"
/>
<path fill="#969a9c" d="
  M 520.05 1485.47
  L 506.45 1485.50
  C 505.94 1485.50 505.44 1485.41 504.96 1485.23
  C 502.25 1484.22 499.03 1475.00 497.88 1471.44
  C 497.04 1468.83 495.14 1467.52 492.19 1467.49
  C 476.28 1467.36 466.54 1467.43 462.96 1467.70
  C 458.65 1468.02 455.86 1470.24 454.59 1474.35
  C 453.41 1478.16 452.15 1481.39 450.81 1484.05
  C 450.18 1485.29 448.90 1486.07 447.51 1486.06
  C 439.74 1486.03 435.48 1486.03 434.75 1486.06
  C 433.73 1486.11 432.98 1485.81 432.49 1485.18
  C 431.24 1483.58 433.55 1481.34 434.09 1480.11
  C 444.88 1455.79 455.23 1431.63 465.12 1407.63
  C 465.83 1405.89 466.56 1404.53 467.31 1403.54
  C 468.18 1402.39 469.52 1401.68 470.96 1401.62
  C 474.03 1401.49 477.82 1401.50 482.31 1401.65
  C 488.38 1401.86 489.80 1409.71 491.78 1414.14
  C 500.76 1434.21 509.31 1454.10 517.44 1473.80
  C 518.68 1476.81 520.07 1479.85 521.62 1482.93
  C 522.20 1484.10 521.35 1485.47 520.05 1485.47
  Z
  M 464.71 1452.60
  C 464.47 1453.23 464.94 1453.91 465.62 1453.91
  L 489.50 1453.66
  C 490.18 1453.65 490.63 1452.96 490.37 1452.33
  L 478.12 1422.71
  C 477.79 1421.91 476.65 1421.93 476.34 1422.73
  L 464.71 1452.60
  Z"
/>
<path fill="#969a9c" d="
  M 564.69 1417.46
  C 564.29 1418.25 564.08 1419.19 564.07 1420.26
  C 563.69 1447.16 563.63 1468.08 563.88 1483.01
  C 563.92 1485.15 563.04 1486.03 560.99 1486.06
  C 556.72 1486.11 552.42 1486.08 548.09 1485.97
  C 546.99 1485.94 546.11 1485.04 546.11 1483.93
  L 546.11 1420.38
  C 546.11 1419.14 545.27 1418.05 544.07 1417.74
  C 542.76 1417.39 541.16 1417.20 539.25 1417.16
  C 533.84 1417.05 528.35 1416.97 522.78 1416.91
  C 521.20 1416.90 520.36 1416.09 520.27 1414.50
  C 520.01 1409.75 519.91 1406.74 519.97 1405.49
  C 520.10 1402.81 521.61 1401.47 524.50 1401.47
  C 526.92 1401.46 546.75 1401.53 584.00 1401.68
  C 585.67 1401.69 587.20 1401.91 588.60 1402.35
  C 589.41 1402.60 589.97 1403.34 590.01 1404.19
  C 590.12 1407.44 590.10 1410.93 589.94 1414.64
  C 589.88 1416.11 588.98 1416.84 587.24 1416.83
  C 580.65 1416.83 573.42 1416.86 565.55 1416.92
  C 565.18 1416.93 564.85 1417.13 564.69 1417.46
  Z"
/>
<path fill="#969a9c" d="
  M 1526.69 1472.95
  L 1527.25 1483.21
  C 1527.27 1483.58 1527.17 1483.94 1526.97 1484.25
  C 1526.37 1485.14 1525.22 1485.57 1523.52 1485.56
  C 1504.80 1485.39 1487.64 1486.17 1471.81 1485.93
  C 1469.19 1485.89 1468.48 1484.13 1468.50 1481.69
  C 1468.61 1470.82 1469.07 1461.99 1469.12 1452.10
  C 1469.19 1434.70 1469.21 1418.92 1469.18 1404.77
  C 1469.17 1403.00 1469.99 1402.04 1471.62 1401.89
  C 1475.51 1401.54 1480.83 1400.92 1484.38 1401.79
  C 1485.72 1402.12 1486.66 1403.34 1486.62 1404.72
  C 1486.46 1410.45 1486.92 1416.35 1486.85 1422.10
  C 1486.68 1436.45 1486.60 1451.50 1486.61 1467.27
  C 1486.62 1469.14 1487.48 1470.11 1489.20 1470.20
  C 1498.72 1470.70 1508.96 1470.66 1524.22 1470.62
  C 1525.54 1470.61 1526.62 1471.64 1526.69 1472.95
  Z"
/>
<path fill="#969a9c" d="
  M 110.45 1416.87
  C 109.97 1416.88 109.57 1417.23 109.50 1417.70
  C 108.79 1422.36 108.71 1427.66 109.26 1433.60
  C 109.34 1434.44 109.93 1435.15 110.75 1435.37
  C 112.77 1435.92 115.06 1436.19 117.63 1436.17
  C 128.49 1436.09 137.63 1436.21 145.06 1436.52
  C 146.14 1436.57 147.03 1437.39 147.16 1438.46
  C 147.57 1441.85 147.63 1445.29 147.32 1448.76
  C 147.19 1450.17 146.33 1450.84 144.73 1450.78
  C 136.68 1450.49 128.02 1450.22 118.75 1449.95
  C 116.22 1449.88 113.41 1450.11 110.34 1450.65
  C 109.94 1450.72 109.60 1450.99 109.45 1451.37
  C 108.78 1453.02 108.43 1454.55 108.38 1455.94
  C 108.21 1460.79 108.16 1464.85 108.23 1468.11
  C 108.25 1468.99 108.81 1469.77 109.64 1470.07
  C 111.40 1470.70 113.27 1471.03 115.26 1471.04
  C 127.43 1471.14 139.00 1471.07 149.99 1470.82
  C 152.61 1470.76 153.74 1471.40 153.79 1474.00
  C 153.88 1478.07 153.90 1481.15 153.85 1483.25
  C 153.82 1484.41 152.93 1485.37 151.77 1485.50
  C 146.18 1486.08 140.31 1485.36 134.44 1485.43
  C 117.32 1485.64 104.28 1485.91 95.31 1486.24
  C 93.84 1486.29 92.65 1485.90 91.73 1485.07
  C 91.04 1484.44 90.71 1483.28 90.74 1481.61
  C 91.30 1453.62 90.80 1433.62 91.47 1411.25
  C 91.51 1409.92 91.39 1407.81 91.10 1404.94
  C 91.07 1404.61 91.16 1404.28 91.35 1404.01
  C 92.38 1402.56 93.40 1401.84 94.41 1401.84
  C 116.59 1401.89 134.71 1401.87 148.78 1401.76
  C 150.03 1401.75 151.00 1402.17 151.70 1403.00
  C 151.93 1403.27 152.06 1403.60 152.07 1403.94
  C 152.26 1409.43 152.14 1413.10 151.73 1414.97
  C 151.45 1416.26 150.53 1416.88 148.98 1416.84
  C 137.54 1416.55 124.70 1416.56 110.45 1416.87
  Z"
/>
<path fill="#969a9c" d="
  M 932.22 1403.66
  C 931.93 1402.81 932.56 1401.91 933.46 1401.90
  C 937.11 1401.84 941.71 1401.94 947.26 1402.19
  C 950.43 1402.34 951.86 1403.43 953.38 1406.31
  C 958.11 1415.25 963.37 1424.59 969.17 1434.33
  C 969.89 1435.54 970.67 1436.58 971.52 1437.46
  C 972.06 1438.02 972.96 1438.01 973.49 1437.43
  C 974.72 1436.10 975.88 1434.52 976.96 1432.71
  C 981.46 1425.22 986.75 1416.10 992.84 1405.33
  C 993.93 1403.38 995.57 1402.34 997.75 1402.21
  C 1001.71 1401.97 1007.39 1401.26 1010.62 1402.44
  C 1011.36 1402.70 1011.63 1403.60 1011.16 1404.23
  C 1006.25 1410.87 1002.27 1418.83 998.02 1425.87
  C 988.95 1440.90 984.39 1448.45 984.36 1448.50
  C 982.11 1452.21 980.77 1455.00 980.35 1456.88
  C 979.54 1460.51 979.70 1464.30 979.65 1468.28
  C 979.60 1471.81 979.68 1475.60 979.89 1479.65
  C 980.06 1482.93 979.53 1484.85 976.48 1485.98
  C 976.15 1486.11 975.80 1486.16 975.44 1486.14
  C 971.92 1486.01 968.98 1486.05 966.61 1486.26
  C 964.13 1486.48 962.00 1485.58 962.21 1482.97
  C 962.90 1474.46 962.87 1466.25 962.12 1458.34
  C 961.66 1453.49 958.62 1448.66 956.08 1444.14
  C 949.33 1432.10 943.40 1421.54 938.29 1412.46
  C 937.85 1411.68 935.96 1409.07 932.62 1404.62
  C 932.53 1404.50 932.46 1404.37 932.41 1404.23
  L 932.22 1403.66
  Z"
/>
<path fill="#969a9c" d="
  M 1130.84 1418.10
  C 1130.81 1428.56 1130.80 1450.12 1130.83 1482.78
  C 1130.83 1485.07 1130.37 1486.14 1127.99 1486.18
  C 1123.46 1486.26 1119.25 1486.21 1115.34 1486.03
  C 1114.02 1485.97 1112.96 1484.90 1112.91 1483.58
  C 1112.80 1480.21 1112.78 1476.86 1112.86 1473.53
  C 1113.35 1454.47 1113.05 1435.79 1113.21 1421.00
  C 1113.24 1418.54 1111.74 1417.28 1108.73 1417.23
  C 1103.52 1417.14 1097.54 1417.02 1090.81 1416.86
  C 1086.14 1416.75 1086.32 1410.40 1086.21 1406.53
  C 1086.13 1403.91 1086.74 1402.85 1089.36 1402.36
  C 1092.31 1401.80 1094.36 1401.53 1095.52 1401.55
  C 1123.82 1401.98 1143.37 1402.22 1154.17 1402.26
  C 1155.67 1402.27 1156.40 1403.22 1156.36 1405.12
  C 1156.27 1409.09 1156.09 1412.28 1155.80 1414.70
  C 1155.66 1415.91 1154.63 1416.82 1153.41 1416.82
  L 1132.13 1416.82
  C 1131.42 1416.82 1130.85 1417.39 1130.84 1418.10
  Z"
/>
<path fill="#969a9c" d="
  M 170.65 1404.67
  C 170.67 1403.21 171.86 1402.04 173.32 1402.06
  L 210.10 1402.38
  C 232.45 1402.57 250.42 1420.21 250.23 1441.78
  L 250.18 1447.20
  C 250.00 1468.76 231.73 1486.09 209.38 1485.89
  L 172.59 1485.57
  C 171.13 1485.56 169.96 1484.37 169.97 1482.91
  L 170.65 1404.67
  Z
  M 188.20 1419.31
  L 188.54 1468.63
  C 188.55 1469.47 189.23 1470.15 190.07 1470.14
  L 206.80 1470.02
  C 220.90 1469.93 232.26 1459.18 232.17 1446.02
  L 232.13 1441.32
  C 232.04 1428.16 220.54 1417.57 206.44 1417.67
  L 189.71 1417.78
  C 188.87 1417.79 188.19 1418.47 188.20 1419.31
  Z"
/>
<rect fill="#969a9c" x="602.32" y="1402.09" width="17.68" height="84.22" rx="2.41"/>
<path fill="#969a9c" d="
  M 795.88 1450.02
  C 796.31 1448.40 796.51 1447.14 796.49 1446.25
  C 796.18 1433.51 795.92 1419.57 795.70 1404.42
  C 795.70 1404.08 795.81 1403.76 796.01 1403.49
  C 796.66 1402.62 797.65 1402.18 798.98 1402.16
  C 803.44 1402.10 807.38 1402.10 810.80 1402.15
  C 812.33 1402.18 813.09 1402.96 813.08 1404.50
  C 812.88 1430.27 812.84 1456.05 812.95 1481.86
  C 812.96 1484.77 812.48 1486.87 809.17 1486.61
  C 805.60 1486.34 802.80 1486.13 800.76 1486.00
  C 799.15 1485.90 797.66 1484.68 796.58 1483.36
  C 792.45 1478.30 787.86 1472.92 784.18 1467.95
  C 774.68 1455.13 766.83 1444.85 760.62 1437.12
  C 759.97 1436.33 758.85 1436.17 758.10 1436.78
  C 757.47 1437.30 757.13 1438.08 757.09 1439.13
  C 756.58 1454.28 756.75 1468.90 757.58 1482.97
  C 757.66 1484.34 756.59 1485.50 755.22 1485.52
  C 752.78 1485.56 748.63 1485.59 742.76 1485.60
  C 740.75 1485.61 739.29 1485.23 739.27 1483.07
  C 739.24 1479.60 739.39 1475.69 739.72 1471.34
  C 740.00 1467.58 739.47 1464.67 739.44 1461.00
  C 739.29 1446.00 739.18 1427.17 739.10 1404.52
  C 739.09 1402.30 741.05 1402.24 743.10 1402.17
  C 748.37 1402.00 751.71 1402.08 753.10 1402.42
  C 755.75 1403.07 757.38 1405.31 759.14 1407.53
  C 765.87 1416.03 776.01 1428.98 789.56 1446.39
  C 789.85 1446.77 790.21 1447.09 790.61 1447.33
  L 795.33 1450.24
  C 795.54 1450.37 795.82 1450.26 795.88 1450.02
  Z"
/>
<path fill="#969a9c" d="
  M 1226.46 1436.34
  L 1226.23 1447.33
  C 1226.20 1448.86 1224.94 1450.09 1223.41 1450.08
  L 1188.42 1450.03
  C 1188.07 1450.03 1187.72 1450.14 1187.43 1450.34
  C 1186.83 1450.77 1186.49 1451.73 1186.41 1453.24
  C 1186.22 1456.85 1186.07 1461.28 1185.96 1466.52
  C 1185.87 1470.44 1187.60 1471.00 1191.30 1471.01
  C 1195.92 1471.02 1208.07 1470.99 1227.76 1470.94
  C 1229.99 1470.94 1230.94 1471.56 1231.04 1473.74
  C 1231.17 1476.87 1231.15 1480.08 1230.97 1483.38
  C 1230.93 1484.21 1230.43 1484.95 1229.68 1485.31
  C 1228.45 1485.90 1227.05 1486.18 1225.49 1486.15
  C 1220.04 1486.06 1214.26 1485.66 1209.50 1485.79
  C 1195.55 1486.17 1183.31 1486.29 1172.79 1486.15
  C 1170.01 1486.11 1168.68 1484.65 1168.79 1481.78
  C 1169.29 1469.41 1169.70 1450.40 1170.01 1424.75
  C 1170.08 1419.52 1169.82 1413.84 1169.23 1407.71
  C 1168.94 1404.56 1169.65 1402.20 1173.01 1402.16
  C 1193.27 1401.96 1211.18 1401.94 1226.73 1402.10
  C 1228.77 1402.12 1229.84 1402.92 1229.95 1404.51
  C 1230.09 1406.72 1230.10 1409.39 1229.99 1412.52
  C 1229.82 1417.26 1226.87 1416.73 1222.80 1416.67
  C 1213.85 1416.53 1203.32 1416.27 1191.20 1415.90
  C 1188.15 1415.81 1186.58 1417.07 1186.49 1419.68
  C 1186.34 1424.41 1186.26 1428.99 1186.24 1433.40
  C 1186.23 1434.30 1186.79 1435.10 1187.64 1435.41
  C 1188.68 1435.78 1189.97 1435.96 1191.52 1435.94
  C 1203.98 1435.78 1214.47 1435.47 1223.00 1435.02
  C 1223.97 1434.97 1224.96 1435.16 1225.96 1435.57
  C 1226.27 1435.70 1226.47 1436.01 1226.46 1436.34
  Z"
/>
</svg>
